<?xml version="1.0" encoding="UTF-8" standalone="no"?>
<svg xmlns:xlink="http://www.w3.org/1999/xlink" height="110.8px" width="118.1px" xmlns="http://www.w3.org/2000/svg">
  <g transform="matrix(1, 0, 0, 1, -86.75, -335.15)">
    <path d="M204.5 444.1 Q204.85 444.4 204.85 444.85 L204.5 445.6 203.65 445.95 200.15 445.95 Q199.6 445.95 199.25 445.6 198.9 445.25 198.9 444.85 198.9 444.4 199.25 444.1 199.6 443.75 200.15 443.75 L203.65 443.75 Q204.1 443.75 204.5 444.1" fill="#e3e2d9" fill-rule="evenodd" stroke="none"/>
    <path d="M145.0 335.15 Q149.6 335.15 149.6 339.75 L149.6 349.7 Q149.6 354.2 145.0 354.2 L98.15 354.2 86.75 359.45 93.65 348.6 93.65 339.75 Q93.65 335.15 98.15 335.15 L145.0 335.15" fill="#939089" fill-rule="evenodd" stroke="none"/>
  </g>
</svg>
