<?xml version="1.0" encoding="UTF-8" standalone="no"?>
<svg xmlns:xlink="http://www.w3.org/1999/xlink" height="144.45px" width="59.2px" xmlns="http://www.w3.org/2000/svg">
  <g transform="matrix(1, 0, 0, 1, 29.75, 72.2)">
    <path d="M11.7 -69.8 L-23.05 -69.8 -23.05 -72.2 11.7 -72.2 11.7 -69.8" fill="#a3937a" fill-rule="evenodd" stroke="none"/>
    <path d="M20.7 16.6 L-29.4 16.6 -29.4 -70.1 22.85 -70.1 20.7 16.6" fill="#c9ba9b" fill-rule="evenodd" stroke="none"/>
    <path d="M20.7 16.6 L-29.4 16.6 -29.4 -70.1 22.85 -70.1 20.7 16.6 Z" fill="none" stroke="#363636" stroke-linecap="butt" stroke-linejoin="miter" stroke-miterlimit="10.0" stroke-width="0.75"/>
    <path d="M18.2 15.15 L-26.45 15.15 -26.45 -67.05 20.1 -67.05 18.2 15.15" fill="url(#gradient0)" fill-rule="evenodd" stroke="none"/>
    <path d="M18.2 15.15 L-26.45 15.15 -26.45 -67.05 20.1 -67.05 18.2 15.15 Z" fill="none" stroke="#efeae4" stroke-linecap="butt" stroke-linejoin="miter" stroke-miterlimit="10.0" stroke-width="1.0"/>
    <path d="M21.1 16.6 L29.45 72.25 -29.4 72.25 -29.4 16.6 21.1 16.6" fill="url(#gradient1)" fill-rule="evenodd" stroke="none"/>
    <path d="M20.25 19.8 L28.0 68.15 Q28.0 69.0 27.5 69.6 27.05 70.2 26.35 70.2 L-26.9 70.2 Q-27.55 70.2 -28.05 69.6 -28.55 69.0 -28.55 68.15 L-28.55 19.8 Q-28.55 18.95 -28.05 18.3 -27.55 17.7 -26.9 17.7 L18.6 17.7 Q19.3 17.7 19.75 18.3 20.25 18.95 20.25 19.8" fill="#484e54" fill-rule="evenodd" stroke="none"/>
    <path d="M18.6 17.7 L14.45 31.45 -21.8 31.45 -26.9 17.7 18.6 17.7" fill="url(#gradient2)" fill-rule="evenodd" stroke="none"/>
    <path d="M-28.5 18.95 L-21.75 31.55 -20.1 68.05 -27.8 69.15 -28.5 18.95" fill="url(#gradient3)" fill-rule="evenodd" stroke="none"/>
    <path d="M19.15 17.65 L26.75 68.6 18.6 68.0 15.0 31.95 19.15 17.65" fill="url(#gradient4)" fill-rule="evenodd" stroke="none"/>
    <path d="M18.6 67.05 L-20.1 67.05 -21.75 31.45 15.0 31.45 18.6 67.05" fill="url(#gradient5)" fill-rule="evenodd" stroke="none"/>
  </g>
  <defs>
    <linearGradient gradientTransform="matrix(3.0E-4, -0.0492, -0.0477, -3.0E-4, -3.45, -25.2)" gradientUnits="userSpaceOnUse" id="gradient0" spreadMethod="pad" x1="-819.2" x2="819.2">
      <stop offset="0.0" stop-color="#7a563b"/>
      <stop offset="0.0" stop-color="#253e4b"/>
      <stop offset="1.0" stop-color="#0e5155"/>
    </linearGradient>
    <linearGradient gradientTransform="matrix(0.0359, 0.0, 0.0, -0.037, 0.05, 44.45)" gradientUnits="userSpaceOnUse" id="gradient1" spreadMethod="pad" x1="-819.2" x2="819.2">
      <stop offset="0.0" stop-color="#7a563b"/>
      <stop offset="0.0" stop-color="#776c60"/>
      <stop offset="1.0" stop-color="#b69c6b"/>
    </linearGradient>
    <linearGradient gradientTransform="matrix(1.0E-4, -0.0083, -0.0086, -1.0E-4, -4.2, 24.7)" gradientUnits="userSpaceOnUse" id="gradient2" spreadMethod="pad" x1="-819.2" x2="819.2">
      <stop offset="0.0" stop-color="#7a563b"/>
      <stop offset="0.0" stop-color="#253e4b"/>
      <stop offset="1.0" stop-color="#0e5155"/>
    </linearGradient>
    <linearGradient gradientTransform="matrix(2.0E-4, -0.0299, -0.0308, -2.0E-4, -24.3, 44.5)" gradientUnits="userSpaceOnUse" id="gradient3" spreadMethod="pad" x1="-819.2" x2="819.2">
      <stop offset="0.0" stop-color="#7a563b"/>
      <stop offset="0.0" stop-color="#253e4b"/>
      <stop offset="1.0" stop-color="#0e5155"/>
    </linearGradient>
    <linearGradient gradientTransform="matrix(2.0E-4, -0.0303, -0.0312, -2.0E-4, 20.9, 43.55)" gradientUnits="userSpaceOnUse" id="gradient4" spreadMethod="pad" x1="-819.2" x2="819.2">
      <stop offset="0.0" stop-color="#7a563b"/>
      <stop offset="0.0" stop-color="#253e4b"/>
      <stop offset="1.0" stop-color="#0e5155"/>
    </linearGradient>
    <linearGradient gradientTransform="matrix(2.0E-4, -0.0213, -0.022, -2.0E-4, -1.6, 49.55)" gradientUnits="userSpaceOnUse" id="gradient5" spreadMethod="pad" x1="-819.2" x2="819.2">
      <stop offset="0.0" stop-color="#7a563b"/>
      <stop offset="0.0" stop-color="#2d5c73"/>
      <stop offset="1.0" stop-color="#0e5155"/>
    </linearGradient>
  </defs>
</svg>
