<?xml version="1.0" encoding="UTF-8" standalone="no"?>
<svg xmlns:xlink="http://www.w3.org/1999/xlink" height="5.4px" width="5.0px" xmlns="http://www.w3.org/2000/svg">
  <g transform="matrix(1, 0, 0, 1, 0.0, 0.0)">
    <path d="M4.5 1.25 L4.5 4.15 4.3 4.85 3.85 5.15 0.8 5.15 0.35 4.85 0.15 4.15 0.0 2.75 0.15 1.25 0.35 0.55 Q0.55 0.25 0.8 0.25 L3.85 0.25 Q4.1 0.25 4.3 0.55 L4.5 1.25" fill="url(#gradient0)" fill-rule="evenodd" stroke="none"/>
    <path d="M4.75 2.7 L4.55 4.45 4.0 5.15 Q3.7 5.15 3.5 4.45 L3.25 2.7 Q3.25 1.7 3.5 0.95 3.7 0.25 4.0 0.25 L4.55 0.95 4.75 2.7" fill="#f3f2f1" fill-rule="evenodd" stroke="none"/>
    <path d="M4.75 2.7 L4.55 4.45 4.0 5.15 Q3.7 5.15 3.5 4.45 L3.25 2.7 Q3.25 1.7 3.5 0.95 3.7 0.25 4.0 0.25 L4.55 0.95 4.75 2.7 Z" fill="none" stroke="#ffffff" stroke-linecap="butt" stroke-linejoin="miter" stroke-miterlimit="10.0" stroke-width="0.5"/>
    <path d="M2.2 5.15 Q1.85 5.15 1.65 4.45 1.4 3.7 1.4 2.7 1.4 1.7 1.65 0.95 1.85 0.25 2.2 0.25" fill="none" stroke="#bcb7b0" stroke-linecap="butt" stroke-linejoin="miter" stroke-miterlimit="10.0" stroke-width="0.25"/>
    <path d="M2.5 5.15 Q1.75 5.15 1.75 2.7 L1.95 0.95 Q2.15 0.25 2.5 0.25" fill="none" stroke="#bcb7b0" stroke-linecap="butt" stroke-linejoin="miter" stroke-miterlimit="10.0" stroke-width="0.25"/>
    <path d="M2.8 5.15 Q2.5 5.15 2.3 4.45 2.05 3.7 2.05 2.7 2.05 1.7 2.3 0.95 2.5 0.25 2.8 0.25" fill="none" stroke="#bcb7b0" stroke-linecap="butt" stroke-linejoin="miter" stroke-miterlimit="10.0" stroke-width="0.25"/>
  </g>
  <defs>
    <linearGradient gradientTransform="matrix(0.0, -0.0029, -0.0029, 0.0, 2.25, 2.75)" gradientUnits="userSpaceOnUse" id="gradient0" spreadMethod="pad" x1="-819.2" x2="819.2">
      <stop offset="0.0" stop-color="#7a563b"/>
      <stop offset="0.0" stop-color="#6d7f80"/>
      <stop offset="1.0" stop-color="#5ec4b6"/>
    </linearGradient>
  </defs>
</svg>
