<?xml version="1.0" encoding="UTF-8" standalone="no"?>
<svg xmlns:xlink="http://www.w3.org/1999/xlink" height="4.5px" width="4.1px" xmlns="http://www.w3.org/2000/svg">
  <g transform="matrix(1, 0, 0, 1, 0.0, 0.0)">
    <path d="M3.6 1.05 L3.6 3.45 Q3.6 4.25 3.1 4.25 L0.65 4.25 Q0.1 4.25 0.1 3.45 L0.0 2.3 0.1 1.05 Q0.1 0.25 0.65 0.25 L3.1 0.25 Q3.6 0.25 3.6 1.05" fill="url(#gradient0)" fill-rule="evenodd" stroke="none"/>
    <path d="M3.85 2.25 L3.65 3.65 3.2 4.25 Q2.95 4.25 2.8 3.65 L2.6 2.25 2.8 0.85 Q2.95 0.25 3.2 0.25 L3.65 0.85 3.85 2.25" fill="#f3f2f1" fill-rule="evenodd" stroke="none"/>
    <path d="M3.85 2.25 L3.65 3.65 3.2 4.25 Q2.95 4.25 2.8 3.65 L2.6 2.25 2.8 0.85 Q2.95 0.25 3.2 0.25 L3.65 0.85 3.85 2.25 Z" fill="none" stroke="#ffffff" stroke-linecap="butt" stroke-linejoin="miter" stroke-miterlimit="10.0" stroke-width="0.5"/>
    <path d="M1.75 4.25 Q1.5 4.25 1.3 3.65 L1.1 2.25 1.3 0.85 Q1.5 0.25 1.75 0.25" fill="none" stroke="#bcb7b0" stroke-linecap="butt" stroke-linejoin="miter" stroke-miterlimit="10.0" stroke-width="0.25"/>
    <path d="M2.0 4.25 L1.55 3.65 1.35 2.25 1.55 0.85 2.0 0.25" fill="none" stroke="#bcb7b0" stroke-linecap="butt" stroke-linejoin="miter" stroke-miterlimit="10.0" stroke-width="0.25"/>
    <path d="M2.25 4.25 Q2.0 4.25 1.8 3.65 L1.6 2.25 1.8 0.85 Q2.0 0.25 2.25 0.25" fill="none" stroke="#bcb7b0" stroke-linecap="butt" stroke-linejoin="miter" stroke-miterlimit="10.0" stroke-width="0.25"/>
  </g>
  <defs>
    <linearGradient gradientTransform="matrix(0.0, -0.0024, -0.0024, 0.0, 1.8, 2.3)" gradientUnits="userSpaceOnUse" id="gradient0" spreadMethod="pad" x1="-819.2" x2="819.2">
      <stop offset="0.0" stop-color="#7a563b"/>
      <stop offset="0.0" stop-color="#6d7f80"/>
      <stop offset="1.0" stop-color="#5ec4b6"/>
    </linearGradient>
  </defs>
</svg>
