<?xml version="1.0" encoding="UTF-8" standalone="no"?>
<svg xmlns:xlink="http://www.w3.org/1999/xlink" height="13.15px" width="33.3px" xmlns="http://www.w3.org/2000/svg">
  <g transform="matrix(1, 0, 0, 1, 20.1, -18.1)">
    <path d="M-15.55 28.85 Q-15.55 29.35 -16.05 29.75 -16.55 30.15 -17.25 30.15 -17.95 30.15 -18.45 29.75 -18.95 29.35 -18.95 28.85 -18.95 28.3 -18.45 27.9 -17.95 27.5 -17.25 27.5 -16.55 27.5 -16.05 27.9 -15.55 28.3 -15.55 28.85" fill="#f3f2f1" fill-rule="evenodd" stroke="none"/>
    <path d="M-15.55 28.85 Q-15.55 29.35 -16.05 29.75 -16.55 30.15 -17.25 30.15 -17.95 30.15 -18.45 29.75 -18.95 29.35 -18.95 28.85 -18.95 28.3 -18.45 27.9 -17.95 27.5 -17.25 27.5 -16.55 27.5 -16.05 27.9 -15.55 28.3 -15.55 28.85 Z" fill="none" stroke="#ffffff" stroke-linecap="butt" stroke-linejoin="miter" stroke-miterlimit="10.0" stroke-width="0.5"/>
    <path d="M-15.65 28.35 L-16.1 28.95 -17.25 29.2 -18.35 28.95 -18.8 28.35 -18.35 27.75 Q-17.85 27.45 -17.25 27.45 L-16.15 27.75 Q-15.65 28.0 -15.65 28.35" fill="#707e81" fill-rule="evenodd" stroke="none"/>
    <path d="M12.95 28.85 Q12.95 29.4 12.45 29.8 11.95 30.2 11.25 30.2 10.55 30.2 10.1 29.8 9.6 29.4 9.6 28.85 9.6 28.3 10.1 27.9 10.55 27.55 11.25 27.55 11.95 27.55 12.45 27.9 12.95 28.3 12.95 28.85" fill="#f3f2f1" fill-rule="evenodd" stroke="none"/>
    <path d="M12.95 28.85 Q12.95 29.4 12.45 29.8 11.95 30.2 11.25 30.2 10.55 30.2 10.1 29.8 9.6 29.4 9.6 28.85 9.6 28.3 10.1 27.9 10.55 27.55 11.25 27.55 11.95 27.55 12.45 27.9 12.95 28.3 12.95 28.85 Z" fill="none" stroke="#ffffff" stroke-linecap="butt" stroke-linejoin="miter" stroke-miterlimit="10.0" stroke-width="0.5"/>
    <path d="M12.85 28.35 L12.4 28.95 11.25 29.2 10.15 28.95 Q9.7 28.7 9.7 28.35 9.7 28.0 10.15 27.75 L11.25 27.5 Q11.9 27.5 12.35 27.8 12.85 28.0 12.85 28.35" fill="#707e81" fill-rule="evenodd" stroke="none"/>
    <path d="M3.65 25.25 Q3.65 27.55 1.8 29.15 -0.1 30.75 -2.7 30.75 -5.4 30.75 -7.25 29.15 -9.1 27.55 -9.1 25.25 -9.1 22.95 -7.25 21.35 -5.4 19.7 -2.7 19.7 -0.1 19.7 1.8 21.35 3.65 22.95 3.65 25.25" fill="#ffffff" fill-rule="evenodd" stroke="none"/>
    <path d="M3.65 25.25 Q3.65 27.55 1.8 29.15 -0.1 30.75 -2.7 30.75 -5.4 30.75 -7.25 29.15 -9.1 27.55 -9.1 25.25 -9.1 22.95 -7.25 21.35 -5.4 19.7 -2.7 19.7 -0.1 19.7 1.8 21.35 3.65 22.95 3.65 25.25 Z" fill="none" stroke="#ffffff" stroke-linecap="butt" stroke-linejoin="miter" stroke-miterlimit="10.0" stroke-width="1.0"/>
    <path d="M3.65 24.6 Q3.65 26.4 1.8 27.65 -0.1 28.95 -2.7 28.95 -5.4 28.95 -7.25 27.65 -9.1 26.4 -9.1 24.6 -9.1 22.75 -7.25 21.25 -5.3 19.7 -2.7 19.7 -0.15 19.7 1.8 21.25 3.65 22.75 3.65 24.6" fill="#676e75" fill-rule="evenodd" stroke="none"/>
    <path d="M-18.65 22.9 L-18.85 23.35 -19.35 23.5 -19.9 23.35 -20.1 22.9 -19.9 22.45 -19.35 22.3 -18.85 22.45 -18.65 22.9" fill="#9fa5aa" fill-rule="evenodd" stroke="none"/>
    <path d="M-18.65 23.1 L-18.85 23.5 -19.35 23.7 -19.9 23.5 -20.1 23.1 -19.9 22.65 -19.35 22.45 -18.85 22.65 -18.65 23.1" fill="#dde2e5" fill-rule="evenodd" stroke="none"/>
    <path d="M-19.55 22.45 L-19.35 22.45 -19.35 23.7 -19.55 23.7 -19.55 22.45" fill="#b0b3b4" fill-rule="evenodd" stroke="none"/>
    <path d="M-19.45 22.45 L-19.25 22.45 -19.25 23.7 -19.45 23.7 -19.45 22.45" fill="#b0b3b4" fill-rule="evenodd" stroke="none"/>
    <path d="M12.0 22.9 L11.8 23.35 11.25 23.5 10.75 23.35 10.55 22.9 10.75 22.45 Q10.95 22.3 11.25 22.3 11.55 22.3 11.8 22.45 L12.0 22.9" fill="#9fa5aa" fill-rule="evenodd" stroke="none"/>
    <path d="M12.0 23.1 L11.8 23.5 11.25 23.7 10.75 23.5 10.55 23.1 10.75 22.65 11.25 22.45 11.8 22.65 12.0 23.1" fill="#dde2e5" fill-rule="evenodd" stroke="none"/>
    <path d="M11.1 22.45 L11.25 22.45 11.25 23.7 11.1 23.7 11.1 22.45" fill="#b0b3b4" fill-rule="evenodd" stroke="none"/>
    <path d="M11.2 22.45 L11.35 22.45 11.35 23.7 11.2 23.7 11.2 22.45" fill="#b0b3b4" fill-rule="evenodd" stroke="none"/>
  </g>
</svg>
