<?xml version="1.0" encoding="UTF-8" standalone="no"?>
<svg xmlns:xlink="http://www.w3.org/1999/xlink" height="1.75px" width="1.85px" xmlns="http://www.w3.org/2000/svg">
  <g transform="matrix(1, 0, 0, 1, 0.05, 0.0)">
    <path d="M1.75 1.05 Q1.5 1.75 0.65 1.5 L0.15 1.1 0.1 0.5 0.5 0.05 1.15 0.05 Q1.95 0.3 1.75 1.05" fill="#9fa5aa" fill-rule="evenodd" stroke="none"/>
    <path d="M1.65 1.25 L1.25 1.7 0.6 1.7 Q-0.2 1.45 0.0 0.7 0.25 0.05 1.1 0.3 1.9 0.55 1.65 1.25" fill="#dde2e5" fill-rule="evenodd" stroke="none"/>
    <path d="M0.9 0.25 L1.1 0.3 0.6 1.7 0.4 1.65 0.9 0.25" fill="#b0b3b4" fill-rule="evenodd" stroke="none"/>
    <path d="M1.0 0.25 L1.2 0.3 0.7 1.75 0.5 1.65 1.0 0.25" fill="#b0b3b4" fill-rule="evenodd" stroke="none"/>
  </g>
</svg>
