<?xml version="1.0" encoding="UTF-8" standalone="no"?>
<svg xmlns:xlink="http://www.w3.org/1999/xlink" height="1.75px" width="1.8px" xmlns="http://www.w3.org/2000/svg">
  <g transform="matrix(1, 0, 0, 1, 0.0, 0.0)">
    <path d="M1.75 1.05 L1.35 1.45 0.7 1.45 0.2 1.05 Q0.0 0.75 0.1 0.5 0.35 -0.2 1.15 0.05 2.05 0.3 1.75 1.05" fill="#9fa5aa" fill-rule="evenodd" stroke="none"/>
    <path d="M1.7 1.25 Q1.45 1.95 0.6 1.7 -0.2 1.35 0.05 0.7 L0.45 0.25 1.1 0.25 Q1.9 0.5 1.7 1.25" fill="#dde2e5" fill-rule="evenodd" stroke="none"/>
    <path d="M0.9 0.2 L1.1 0.25 0.6 1.7 0.45 1.6 0.9 0.2" fill="#b0b3b4" fill-rule="evenodd" stroke="none"/>
    <path d="M1.0 0.25 L1.2 0.25 0.7 1.7 0.55 1.6 1.0 0.25" fill="#b0b3b4" fill-rule="evenodd" stroke="none"/>
  </g>
</svg>
