<?xml version="1.0" encoding="UTF-8" standalone="no"?>
<svg xmlns:xlink="http://www.w3.org/1999/xlink" height="129.65px" width="90.95px" xmlns="http://www.w3.org/2000/svg">
  <g transform="matrix(1, 0, 0, 1, 20.45, 64.35)">
    <path d="M-0.65 25.7 Q-0.65 26.5 -1.3 27.1 -1.9 27.65 -2.8 27.65 -3.65 27.65 -4.3 27.1 -4.9 26.5 -4.9 25.7 -4.9 24.85 -4.3 24.25 -3.7 23.7 -2.8 23.7 -1.9 23.7 -1.3 24.25 -0.65 24.85 -0.65 25.7" fill="#e1eeef" fill-rule="evenodd" stroke="none"/>
    <path d="M-0.95 25.55 Q-0.95 26.3 -1.5 26.85 -2.05 27.35 -2.8 27.35 -3.55 27.35 -4.05 26.85 -4.6 26.3 -4.6 25.55 -4.6 24.85 -4.05 24.35 -3.55 23.8 -2.8 23.8 -2.05 23.8 -1.5 24.35 -0.95 24.85 -0.95 25.55" fill="url(#gradient0)" fill-rule="evenodd" stroke="none"/>
    <path d="M-3.8 25.0 L-3.65 24.5 -2.05 24.5 -2.05 25.0 -3.8 25.0" fill="#606b73" fill-rule="evenodd" stroke="none"/>
    <path d="M-1.15 26.05 L-2.05 25.0 -2.05 24.5 -1.15 25.45 -1.15 26.05" fill="#4a5a5c" fill-rule="evenodd" stroke="none"/>
    <path d="M-4.45 26.4 L-4.35 25.85 -3.65 24.5 -4.45 26.4" fill="#586868" fill-rule="evenodd" stroke="none"/>
    <path d="M-3.6 27.4 L-4.45 26.4 -3.8 25.0 -2.05 25.0 -1.15 26.05 -1.7 27.4 -3.6 27.4" fill="url(#gradient1)" fill-rule="evenodd" stroke="none"/>
    <path d="M-2.45 26.2 L-2.3 26.95 -2.45 27.4 -2.45 28.1 Q-2.45 28.5 -2.8 28.5 L-3.1 28.35 -3.25 28.1 -3.25 27.4 -3.3 26.95 -3.25 26.2 -3.1 25.95 Q-3.0 25.8 -2.8 25.8 -2.45 25.8 -2.45 26.2" fill="#4a5a5c" fill-rule="evenodd" stroke="none"/>
    <path d="M-2.45 28.2 Q-2.45 28.5 -2.8 28.5 L-3.25 28.2 Q-3.25 27.9 -2.8 27.9 -2.45 27.9 -2.45 28.2" fill="#486b6f" fill-rule="evenodd" stroke="none"/>
    <path d="M-2.5 28.2 L-2.8 28.45 -3.15 28.2 -2.8 27.95 Q-2.5 27.95 -2.5 28.2" fill="#454a4a" fill-rule="evenodd" stroke="none"/>
    <path d="M0.7 22.7 L-6.0 22.7 -6.2 21.05 0.9 21.05 0.7 22.7" fill="#304b4a" fill-rule="evenodd" stroke="none"/>
    <path d="M0.75 21.75 Q0.75 22.25 0.35 22.25 L-5.7 22.25 Q-6.05 22.25 -6.05 21.75 L-6.05 21.6 Q-6.05 21.15 -5.7 21.15 L0.35 21.15 Q0.75 21.15 0.75 21.6 L0.75 21.75" fill="url(#gradient2)" fill-rule="evenodd" stroke="none"/>
    <path d="M0.55 22.75 L0.15 23.05 -5.5 23.05 Q-5.9 23.05 -5.9 22.75 L-6.05 21.85 Q-6.05 21.6 -5.7 21.6 L0.35 21.6 Q0.75 21.6 0.75 21.85 L0.55 22.75" fill="url(#gradient3)" fill-rule="evenodd" stroke="none"/>
    <path d="M0.4 22.65 L0.05 22.85 -5.4 22.85 Q-5.75 22.85 -5.75 22.65 L-5.95 22.0 -5.55 21.75 0.25 21.75 0.6 22.0 0.4 22.65" fill="url(#gradient4)" fill-rule="evenodd" stroke="none"/>
    <path d="M-4.8 21.4 L-4.9 21.45 -5.3 21.45 -5.4 21.4 -5.3 21.3 -4.9 21.3 -4.8 21.4" fill="#d4ebe8" fill-rule="evenodd" stroke="none"/>
    <path d="M-3.8 21.4 L-3.9 21.45 -4.35 21.45 -4.45 21.4 -4.35 21.3 -3.9 21.3 -3.8 21.4" fill="#d4ebe8" fill-rule="evenodd" stroke="none"/>
    <path d="M-2.85 21.4 L-2.95 21.45 -3.4 21.45 -3.45 21.4 -3.4 21.3 -2.95 21.3 -2.85 21.4" fill="#d4ebe8" fill-rule="evenodd" stroke="none"/>
    <path d="M-1.85 21.4 L-1.95 21.45 -2.4 21.45 -2.45 21.4 -2.4 21.3 -1.95 21.3 -1.85 21.4" fill="#d4ebe8" fill-rule="evenodd" stroke="none"/>
    <path d="M-0.9 21.4 L-0.95 21.45 -1.4 21.45 -1.5 21.4 -1.4 21.3 -0.95 21.3 -0.9 21.4" fill="#d4ebe8" fill-rule="evenodd" stroke="none"/>
    <path d="M0.1 21.4 L0.0 21.45 -0.45 21.45 -0.5 21.4 -0.45 21.3 0.0 21.3 0.1 21.4" fill="#d4ebe8" fill-rule="evenodd" stroke="none"/>
    <path d="M-5.15 22.4 L-5.2 22.45 -5.3 22.4 -5.3 21.9 -5.2 21.85 -5.15 21.9 -5.15 22.4" fill="url(#gradient5)" fill-rule="evenodd" stroke="none"/>
    <path d="M-4.4 22.4 L-4.5 22.45 -4.55 22.4 -4.55 21.9 -4.5 21.85 -4.4 21.9 -4.4 22.4" fill="url(#gradient6)" fill-rule="evenodd" stroke="none"/>
    <path d="M-3.7 22.4 L-3.75 22.45 -3.8 22.4 -3.8 21.9 -3.75 21.85 -3.7 21.9 -3.7 22.4" fill="url(#gradient7)" fill-rule="evenodd" stroke="none"/>
    <path d="M-2.95 22.4 L-3.0 22.45 -3.1 22.4 -3.1 21.9 -3.0 21.85 -2.95 21.9 -2.95 22.4" fill="url(#gradient8)" fill-rule="evenodd" stroke="none"/>
    <path d="M-2.2 22.4 L-2.3 22.45 -2.35 22.4 -2.35 21.9 -2.3 21.85 -2.2 21.9 -2.2 22.4" fill="url(#gradient9)" fill-rule="evenodd" stroke="none"/>
    <path d="M-1.5 22.4 L-1.55 22.45 -1.65 22.4 -1.65 21.9 -1.55 21.85 -1.5 21.9 -1.5 22.4" fill="url(#gradient10)" fill-rule="evenodd" stroke="none"/>
    <path d="M-0.75 22.4 L-0.85 22.45 -0.9 22.4 -0.9 21.9 -0.85 21.85 -0.75 21.9 -0.75 22.4" fill="url(#gradient11)" fill-rule="evenodd" stroke="none"/>
    <path d="M0.0 22.4 L-0.1 22.45 -0.15 22.4 -0.15 21.9 -0.1 21.85 0.0 21.9 0.0 22.4" fill="url(#gradient12)" fill-rule="evenodd" stroke="none"/>
    <path d="M-4.75 22.6 L-4.8 22.6 -4.9 22.6 -4.9 22.05 -4.8 22.05 -4.75 22.05 -4.75 22.6" fill="url(#gradient13)" fill-rule="evenodd" stroke="none"/>
    <path d="M-4.05 22.6 L-4.15 22.6 -4.2 22.6 -4.2 22.05 -4.15 22.05 -4.05 22.05 -4.05 22.6" fill="url(#gradient14)" fill-rule="evenodd" stroke="none"/>
    <path d="M-3.3 22.6 L-3.4 22.6 -3.45 22.6 -3.45 22.05 -3.4 22.05 -3.3 22.05 -3.3 22.6" fill="url(#gradient15)" fill-rule="evenodd" stroke="none"/>
    <path d="M-2.6 22.6 L-2.65 22.65 -2.75 22.6 -2.75 22.1 -2.65 22.05 -2.6 22.1 -2.6 22.6" fill="url(#gradient16)" fill-rule="evenodd" stroke="none"/>
    <path d="M-1.85 22.6 L-1.95 22.6 -2.0 22.6 -2.0 22.05 -1.95 22.05 -1.85 22.05 -1.85 22.6" fill="url(#gradient17)" fill-rule="evenodd" stroke="none"/>
    <path d="M-1.15 22.6 L-1.2 22.6 -1.25 22.6 -1.25 22.05 -1.2 22.05 -1.15 22.05 -1.15 22.6" fill="url(#gradient18)" fill-rule="evenodd" stroke="none"/>
    <path d="M-0.4 22.6 L-0.45 22.65 -0.5 22.6 -0.5 22.1 -0.45 22.05 -0.4 22.1 -0.4 22.6" fill="url(#gradient19)" fill-rule="evenodd" stroke="none"/>
    <path d="M22.4 47.85 Q22.4 50.8 21.65 52.9 20.9 54.95 19.8 54.95 18.75 54.95 18.0 52.9 17.2 50.8 17.2 47.85 17.2 44.85 18.0 42.75 18.75 40.7 19.8 40.7 20.9 40.7 21.65 42.75 22.4 44.85 22.4 47.85" fill="url(#gradient20)" fill-rule="evenodd" stroke="none"/>
    <path d="M22.15 47.5 Q22.15 50.35 21.55 52.4 20.9 54.4 20.05 54.4 19.15 54.4 18.5 52.4 17.9 50.35 17.9 47.5 17.9 44.65 18.5 42.65 19.15 40.6 20.05 40.6 20.9 40.6 21.55 42.65 22.15 44.65 22.15 47.5" fill="#606665" fill-rule="evenodd" stroke="none"/>
    <path d="M14.65 37.05 L16.25 59.55 -20.45 59.55 -20.2 37.05 Q-20.1 35.95 -19.65 34.9 -18.7 32.8 -16.8 33.15 L12.0 33.1 13.35 33.45 Q14.65 34.4 14.65 37.05" fill="#43676d" fill-rule="evenodd" stroke="none"/>
    <path d="M16.2 59.55 L15.7 65.3 -19.75 65.3 -20.45 59.55 16.2 59.55" fill="url(#gradient21)" fill-rule="evenodd" stroke="none"/>
    <path d="M16.05 61.3 L15.55 63.85 -19.7 63.85 -20.4 61.3 16.05 61.3" fill="url(#gradient22)" fill-rule="evenodd" stroke="none"/>
    <path d="M-4.95 51.65 L-6.25 51.65 -6.55 49.0 -4.6 49.0 -4.95 51.65" fill="#43676d" fill-rule="evenodd" stroke="none"/>
    <path d="M10.1 46.15 Q10.5 46.2 10.45 46.45 L10.05 46.75 9.75 46.6 9.65 46.4 Q9.65 46.15 10.1 46.15" fill="#9fa5aa" fill-rule="evenodd" stroke="none"/>
    <path d="M10.2 46.15 Q10.65 46.2 10.55 46.5 L10.15 46.75 9.75 46.4 Q9.85 46.15 10.2 46.15" fill="#dde2e5" fill-rule="evenodd" stroke="none"/>
    <path d="M9.75 46.5 L9.75 46.4 10.55 46.5 10.55 46.55 9.75 46.5" fill="#b0b3b4" fill-rule="evenodd" stroke="none"/>
    <path d="M9.75 46.45 L9.75 46.4 10.55 46.45 10.55 46.5 9.75 46.45" fill="#b0b3b4" fill-rule="evenodd" stroke="none"/>
    <path d="M13.15 57.6 Q13.7 57.65 13.7 58.05 L13.5 58.35 13.1 58.45 12.7 58.3 12.55 57.95 12.75 57.7 13.15 57.6" fill="#9fa5aa" fill-rule="evenodd" stroke="none"/>
    <path d="M13.3 57.6 Q13.9 57.6 13.9 58.1 L13.7 58.4 13.25 58.45 12.9 58.3 12.75 58.0 12.9 57.7 13.3 57.6" fill="#dde2e5" fill-rule="evenodd" stroke="none"/>
    <path d="M12.75 58.1 L12.75 58.0 13.9 58.1 13.85 58.2 12.75 58.1" fill="#b0b3b4" fill-rule="evenodd" stroke="none"/>
    <path d="M12.75 58.05 L12.75 57.95 13.9 58.05 13.85 58.15 12.75 58.05" fill="#b0b3b4" fill-rule="evenodd" stroke="none"/>
    <path d="M12.15 35.55 Q12.35 35.55 12.5 35.7 L12.65 36.0 Q12.65 36.4 12.05 36.4 L11.65 36.25 11.5 35.9 Q11.55 35.5 12.15 35.55" fill="#9fa5aa" fill-rule="evenodd" stroke="none"/>
    <path d="M12.3 35.55 L12.7 35.7 12.8 36.05 12.65 36.35 12.25 36.4 11.8 36.25 11.7 35.95 Q11.75 35.55 12.3 35.55" fill="#dde2e5" fill-rule="evenodd" stroke="none"/>
    <path d="M11.7 36.05 L11.7 35.95 12.8 36.05 12.8 36.1 11.7 36.05" fill="#b0b3b4" fill-rule="evenodd" stroke="none"/>
    <path d="M11.7 36.0 L11.7 35.9 12.8 36.0 12.8 36.1 11.7 36.0" fill="#b0b3b4" fill-rule="evenodd" stroke="none"/>
    <path d="M-17.6 36.4 L-17.7 36.1 Q-17.7 35.7 -17.15 35.7 -16.6 35.75 -16.6 36.15 -16.65 36.6 -17.2 36.55 L-17.6 36.4" fill="#9fa5aa" fill-rule="evenodd" stroke="none"/>
    <path d="M-16.95 35.7 Q-16.4 35.75 -16.4 36.15 L-16.6 36.45 -17.05 36.55 -17.4 36.4 -17.55 36.1 -17.4 35.8 -16.95 35.7" fill="#dde2e5" fill-rule="evenodd" stroke="none"/>
    <path d="M-17.55 36.2 L-17.55 36.1 -16.4 36.15 -16.45 36.25 -17.55 36.2" fill="#b0b3b4" fill-rule="evenodd" stroke="none"/>
    <path d="M-17.55 36.15 L-17.55 36.05 -16.4 36.1 -16.45 36.2 -17.55 36.15" fill="#b0b3b4" fill-rule="evenodd" stroke="none"/>
    <path d="M-17.25 58.45 L-17.65 58.55 Q-18.3 58.5 -18.2 58.1 -18.15 57.65 -17.6 57.7 -17.05 57.75 -17.1 58.15 L-17.25 58.45" fill="#9fa5aa" fill-rule="evenodd" stroke="none"/>
    <path d="M-17.5 58.55 L-17.9 58.4 -18.05 58.1 -17.85 57.8 -17.45 57.7 -17.05 57.85 Q-16.9 58.0 -16.9 58.2 L-17.1 58.45 -17.5 58.55" fill="#dde2e5" fill-rule="evenodd" stroke="none"/>
    <path d="M-16.9 58.2 L-16.95 58.25 -18.05 58.2 -18.05 58.1 -16.9 58.2" fill="#b0b3b4" fill-rule="evenodd" stroke="none"/>
    <path d="M-16.9 58.15 L-16.95 58.2 -18.05 58.15 -18.05 58.05 -16.9 58.15" fill="#b0b3b4" fill-rule="evenodd" stroke="none"/>
    <path d="M-18.65 45.95 L-18.35 46.05 -18.25 46.25 -18.35 46.5 -18.65 46.55 -19.05 46.2 -18.9 46.0 -18.65 45.95" fill="#9fa5aa" fill-rule="evenodd" stroke="none"/>
    <path d="M-18.5 45.95 Q-18.1 46.0 -18.15 46.25 -18.15 46.6 -18.55 46.55 L-18.95 46.2 Q-18.9 45.9 -18.5 45.95" fill="#dde2e5" fill-rule="evenodd" stroke="none"/>
    <path d="M-18.95 46.3 L-18.95 46.2 -18.15 46.25 -18.15 46.35 -18.95 46.3" fill="#b0b3b4" fill-rule="evenodd" stroke="none"/>
    <path d="M-18.9 46.25 L-18.95 46.2 -18.1 46.25 -18.15 46.35 -18.9 46.25" fill="#b0b3b4" fill-rule="evenodd" stroke="none"/>
    <path d="M7.6 40.75 Q7.6 41.4 6.3 41.4 L-12.2 41.4 Q-13.5 41.4 -13.5 40.75 L-13.5 36.8 Q-13.5 36.2 -12.2 36.2 L6.3 36.2 Q7.6 36.2 7.6 36.8 L7.6 40.75" fill="#8ea2a6" fill-rule="evenodd" stroke="none"/>
    <path d="M6.3 32.45 Q7.6 32.45 7.6 33.05 L7.6 37.05 Q7.6 37.65 6.3 37.65 L-12.2 37.65 Q-13.5 37.65 -13.5 37.05 L-13.5 33.05 Q-13.5 32.45 -12.2 32.45 L6.3 32.45" fill="#000000" fill-rule="evenodd" stroke="none"/>
    <path d="M7.4 38.6 L7.4 42.95 Q7.4 44.55 5.7 44.55 -4.05 48.95 -13.75 44.55 -15.45 44.55 -15.45 42.95 L-15.45 38.6 Q-15.45 37.05 -13.75 37.05 L5.7 37.05 Q7.4 37.05 7.4 38.6" fill="#000000" fill-rule="evenodd" stroke="none"/>
    <path d="M7.2 37.6 Q7.2 39.5 3.85 40.8 0.65 42.15 -4.1 42.15 -8.75 42.15 -12.1 40.8 -15.4 39.5 -15.4 37.6 -15.4 35.7 -12.1 34.3 -8.75 33.05 -4.1 33.05 0.65 33.05 3.85 34.3 7.2 35.7 7.2 37.6" fill="#999999" fill-rule="evenodd" stroke="none"/>
    <path d="M6.45 37.6 Q6.45 39.35 3.45 40.6 0.4 41.8 -3.9 41.8 -8.25 41.8 -11.3 40.6 -14.35 39.35 -14.35 37.6 -14.35 35.8 -11.3 34.6 -8.25 33.4 -3.9 33.4 0.4 33.4 3.45 34.6 6.45 35.8 6.45 37.6" fill="url(#gradient23)" fill-rule="evenodd" stroke="none"/>
    <path d="M6.45 37.6 Q6.45 39.35 3.45 40.6 0.4 41.8 -3.9 41.8 -8.25 41.8 -11.3 40.6 -14.35 39.35 -14.35 37.6 -14.35 35.8 -11.3 34.6 -8.25 33.4 -3.9 33.4 0.4 33.4 3.45 34.6 6.45 35.8 6.45 37.6 Z" fill="none" stroke="#cccccc" stroke-linecap="round" stroke-linejoin="round" stroke-width="1.0"/>
    <path d="M1.65 40.9 Q-3.95 41.9 -9.6 40.9 L-9.6 34.5 Q-3.95 33.35 1.65 34.5 L1.65 40.9 Z" fill="none" stroke="#e6e6e6" stroke-linecap="round" stroke-linejoin="round" stroke-width="1.0"/>
    <path d="M7.6 55.8 Q7.6 57.55 5.9 57.55 -4.1 62.5 -14.05 57.55 -15.8 57.55 -15.8 55.8 L-15.8 50.95 Q-15.8 49.2 -14.05 49.2 L5.9 49.2 Q7.6 49.2 7.6 50.95 L7.6 55.8" fill="#000000" fill-rule="evenodd" stroke="none"/>
    <path d="M4.0 53.4 Q0.7 54.9 -4.15 54.9 -9.0 54.9 -12.35 53.4 -15.75 51.9 -15.75 49.85 -15.75 47.7 -12.35 46.15 -9.0 44.75 -4.15 44.75 0.7 44.75 4.0 46.15 7.45 47.7 7.45 49.85 7.45 51.9 4.0 53.4" fill="#999999" fill-rule="evenodd" stroke="none"/>
    <path d="M3.6 53.15 Q0.45 54.5 -3.95 54.5 -8.4 54.5 -11.6 53.15 -14.65 51.8 -14.65 49.85 -14.65 47.85 -11.6 46.5 -8.4 45.1 -3.95 45.1 0.45 45.1 3.6 46.5 6.65 47.85 6.65 49.85 6.65 51.8 3.6 53.15" fill="url(#gradient24)" fill-rule="evenodd" stroke="none"/>
    <path d="M3.6 53.15 Q0.45 54.5 -3.95 54.5 -8.4 54.5 -11.6 53.15 -14.65 51.8 -14.65 49.85 -14.65 47.85 -11.6 46.5 -8.4 45.1 -3.95 45.1 0.45 45.1 3.6 46.5 6.65 47.85 6.65 49.85 6.65 51.8 3.6 53.15 Z" fill="none" stroke="#cccccc" stroke-linecap="round" stroke-linejoin="round" stroke-width="1.0"/>
    <path d="M1.5 52.85 Q-4.1 54.55 -9.75 52.85 L-9.75 46.45 Q-4.4 45.5 1.5 46.45 L1.5 52.85 Z" fill="none" stroke="#e6e6e6" stroke-linecap="round" stroke-linejoin="round" stroke-width="1.0"/>
    <path d="M68.5 -64.35 Q70.5 -64.35 70.5 -62.35 L70.5 -52.35 Q70.5 -50.35 68.5 -50.35 L36.1 -50.35 31.0 -47.75 31.6 -50.35 31.45 -50.35 Q29.45 -50.35 29.45 -52.35 L29.45 -62.35 Q29.45 -64.35 31.45 -64.35 L68.5 -64.35" fill="#606665" fill-rule="evenodd" stroke="none"/>
  </g>
  <defs>
    <radialGradient cx="0" cy="0" gradientTransform="matrix(0.0022, 0.0, 0.0, -0.0022, -2.8, 25.55)" gradientUnits="userSpaceOnUse" id="gradient0" r="819.2" spreadMethod="pad">
      <stop offset="0.0" stop-color="#7a563b"/>
      <stop offset="0.0" stop-color="#ffffff"/>
      <stop offset="0.38823529411764707" stop-color="#f9fbfb"/>
      <stop offset="0.5294117647058824" stop-color="#ebf0f0"/>
      <stop offset="0.6313725490196078" stop-color="#d9e3e2"/>
      <stop offset="0.7098039215686275" stop-color="#c1d1d0"/>
      <stop offset="0.7803921568627451" stop-color="#a5bcbb"/>
      <stop offset="0.8431372549019608" stop-color="#85a5a3"/>
      <stop offset="0.8980392156862745" stop-color="#638b89"/>
      <stop offset="0.9490196078431372" stop-color="#41726f"/>
      <stop offset="0.9921568627450981" stop-color="#215b57"/>
      <stop offset="1.0" stop-color="#1c5854"/>
    </radialGradient>
    <radialGradient cx="0" cy="0" gradientTransform="matrix(0.0018, 0.0, 0.0, -0.0017, -2.8, 26.2)" gradientUnits="userSpaceOnUse" id="gradient1" r="819.2" spreadMethod="pad">
      <stop offset="0.0" stop-color="#7a563b"/>
      <stop offset="0.0" stop-color="#ffffff"/>
      <stop offset="1.0" stop-color="#2f4248"/>
    </radialGradient>
    <linearGradient gradientTransform="matrix(0.0042, 0.0, 0.0, -0.004, -2.65, 21.7)" gradientUnits="userSpaceOnUse" id="gradient2" spreadMethod="pad" x1="-819.2" x2="819.2">
      <stop offset="0.0" stop-color="#ffffff"/>
      <stop offset="0.00784313725490196" stop-color="#f0f0f1"/>
      <stop offset="0.050980392156862744" stop-color="#b4babf"/>
      <stop offset="0.10196078431372549" stop-color="#899399"/>
      <stop offset="0.1568627450980392" stop-color="#69767e"/>
      <stop offset="0.2196078431372549" stop-color="#53626a"/>
      <stop offset="0.2901960784313726" stop-color="#44555c"/>
      <stop offset="0.3686274509803922" stop-color="#3a4c52"/>
      <stop offset="0.47058823529411764" stop-color="#34464c"/>
      <stop offset="0.611764705882353" stop-color="#304349"/>
      <stop offset="1.0" stop-color="#2f4248"/>
    </linearGradient>
    <radialGradient cx="0" cy="0" gradientTransform="matrix(0.0031, 0.0, 0.0, -0.0025, -2.65, 22.3)" gradientUnits="userSpaceOnUse" id="gradient3" r="819.2" spreadMethod="pad">
      <stop offset="0.0" stop-color="#7a563b"/>
      <stop offset="0.0" stop-color="#ffffff"/>
      <stop offset="1.0" stop-color="#2f4248"/>
    </radialGradient>
    <linearGradient gradientTransform="matrix(0.004, 0.0, 0.0, -0.0022, -2.65, 22.3)" gradientUnits="userSpaceOnUse" id="gradient4" spreadMethod="pad" x1="-819.2" x2="819.2">
      <stop offset="0.0" stop-color="#7a563b"/>
      <stop offset="0.0" stop-color="#ffffff"/>
      <stop offset="0.10980392156862745" stop-color="#ebeeef"/>
      <stop offset="0.3254901960784314" stop-color="#c3d1d5"/>
      <stop offset="0.615686274509804" stop-color="#8cabb3"/>
      <stop offset="0.9725490196078431" stop-color="#44858d"/>
      <stop offset="1.0" stop-color="#3e828a"/>
    </linearGradient>
    <linearGradient gradientTransform="matrix(1.0E-4, 0.0, 0.0, -1.0E-4, -5.2, 22.15)" gradientUnits="userSpaceOnUse" id="gradient5" spreadMethod="pad" x1="-819.2" x2="819.2">
      <stop offset="0.0" stop-color="#ffffff"/>
      <stop offset="0.13333333333333333" stop-color="#d9dbdd"/>
      <stop offset="0.40784313725490196" stop-color="#969ea4"/>
      <stop offset="0.796078431372549" stop-color="#4a5a61"/>
      <stop offset="1.0" stop-color="#2f4248"/>
    </linearGradient>
    <linearGradient gradientTransform="matrix(1.0E-4, 0.0, 0.0, -1.0E-4, -4.5, 22.15)" gradientUnits="userSpaceOnUse" id="gradient6" spreadMethod="pad" x1="-819.2" x2="819.2">
      <stop offset="0.0" stop-color="#ffffff"/>
      <stop offset="0.13333333333333333" stop-color="#d9dbdd"/>
      <stop offset="0.40784313725490196" stop-color="#969ea4"/>
      <stop offset="0.796078431372549" stop-color="#4a5a61"/>
      <stop offset="1.0" stop-color="#2f4248"/>
    </linearGradient>
    <linearGradient gradientTransform="matrix(1.0E-4, 0.0, 0.0, -1.0E-4, -3.75, 22.15)" gradientUnits="userSpaceOnUse" id="gradient7" spreadMethod="pad" x1="-819.2" x2="819.2">
      <stop offset="0.0" stop-color="#ffffff"/>
      <stop offset="0.13333333333333333" stop-color="#d9dbdd"/>
      <stop offset="0.40784313725490196" stop-color="#969ea4"/>
      <stop offset="0.796078431372549" stop-color="#4a5a61"/>
      <stop offset="1.0" stop-color="#2f4248"/>
    </linearGradient>
    <linearGradient gradientTransform="matrix(1.0E-4, 0.0, 0.0, -1.0E-4, -3.0, 22.15)" gradientUnits="userSpaceOnUse" id="gradient8" spreadMethod="pad" x1="-819.2" x2="819.2">
      <stop offset="0.0" stop-color="#ffffff"/>
      <stop offset="0.13333333333333333" stop-color="#d9dbdd"/>
      <stop offset="0.40784313725490196" stop-color="#969ea4"/>
      <stop offset="0.796078431372549" stop-color="#4a5a61"/>
      <stop offset="1.0" stop-color="#2f4248"/>
    </linearGradient>
    <linearGradient gradientTransform="matrix(1.0E-4, 0.0, 0.0, -1.0E-4, -2.3, 22.15)" gradientUnits="userSpaceOnUse" id="gradient9" spreadMethod="pad" x1="-819.2" x2="819.2">
      <stop offset="0.0" stop-color="#ffffff"/>
      <stop offset="0.13333333333333333" stop-color="#d9dbdd"/>
      <stop offset="0.40784313725490196" stop-color="#969ea4"/>
      <stop offset="0.796078431372549" stop-color="#4a5a61"/>
      <stop offset="1.0" stop-color="#2f4248"/>
    </linearGradient>
    <linearGradient gradientTransform="matrix(1.0E-4, 0.0, 0.0, -1.0E-4, -1.55, 22.15)" gradientUnits="userSpaceOnUse" id="gradient10" spreadMethod="pad" x1="-819.2" x2="819.2">
      <stop offset="0.0" stop-color="#ffffff"/>
      <stop offset="0.13333333333333333" stop-color="#d9dbdd"/>
      <stop offset="0.40784313725490196" stop-color="#969ea4"/>
      <stop offset="0.796078431372549" stop-color="#4a5a61"/>
      <stop offset="1.0" stop-color="#2f4248"/>
    </linearGradient>
    <linearGradient gradientTransform="matrix(1.0E-4, 0.0, 0.0, -1.0E-4, -0.85, 22.15)" gradientUnits="userSpaceOnUse" id="gradient11" spreadMethod="pad" x1="-819.2" x2="819.2">
      <stop offset="0.0" stop-color="#ffffff"/>
      <stop offset="0.13333333333333333" stop-color="#d9dbdd"/>
      <stop offset="0.40784313725490196" stop-color="#969ea4"/>
      <stop offset="0.796078431372549" stop-color="#4a5a61"/>
      <stop offset="1.0" stop-color="#2f4248"/>
    </linearGradient>
    <linearGradient gradientTransform="matrix(1.0E-4, 0.0, 0.0, -1.0E-4, -0.1, 22.15)" gradientUnits="userSpaceOnUse" id="gradient12" spreadMethod="pad" x1="-819.2" x2="819.2">
      <stop offset="0.0" stop-color="#ffffff"/>
      <stop offset="0.13333333333333333" stop-color="#d9dbdd"/>
      <stop offset="0.40784313725490196" stop-color="#969ea4"/>
      <stop offset="0.796078431372549" stop-color="#4a5a61"/>
      <stop offset="1.0" stop-color="#2f4248"/>
    </linearGradient>
    <linearGradient gradientTransform="matrix(1.0E-4, 0.0, 0.0, -1.0E-4, -4.8, 22.3)" gradientUnits="userSpaceOnUse" id="gradient13" spreadMethod="pad" x1="-819.2" x2="819.2">
      <stop offset="0.0" stop-color="#ffffff"/>
      <stop offset="0.13333333333333333" stop-color="#d9dbdd"/>
      <stop offset="0.40784313725490196" stop-color="#969ea4"/>
      <stop offset="0.796078431372549" stop-color="#4a5a61"/>
      <stop offset="1.0" stop-color="#2f4248"/>
    </linearGradient>
    <linearGradient gradientTransform="matrix(1.0E-4, 0.0, 0.0, -1.0E-4, -4.15, 22.3)" gradientUnits="userSpaceOnUse" id="gradient14" spreadMethod="pad" x1="-819.2" x2="819.2">
      <stop offset="0.0" stop-color="#ffffff"/>
      <stop offset="0.13333333333333333" stop-color="#d9dbdd"/>
      <stop offset="0.40784313725490196" stop-color="#969ea4"/>
      <stop offset="0.796078431372549" stop-color="#4a5a61"/>
      <stop offset="1.0" stop-color="#2f4248"/>
    </linearGradient>
    <linearGradient gradientTransform="matrix(1.0E-4, 0.0, 0.0, -1.0E-4, -3.4, 22.3)" gradientUnits="userSpaceOnUse" id="gradient15" spreadMethod="pad" x1="-819.2" x2="819.2">
      <stop offset="0.0" stop-color="#ffffff"/>
      <stop offset="0.13333333333333333" stop-color="#d9dbdd"/>
      <stop offset="0.40784313725490196" stop-color="#969ea4"/>
      <stop offset="0.796078431372549" stop-color="#4a5a61"/>
      <stop offset="1.0" stop-color="#2f4248"/>
    </linearGradient>
    <linearGradient gradientTransform="matrix(1.0E-4, 0.0, 0.0, -1.0E-4, -2.65, 22.35)" gradientUnits="userSpaceOnUse" id="gradient16" spreadMethod="pad" x1="-819.2" x2="819.2">
      <stop offset="0.0" stop-color="#ffffff"/>
      <stop offset="0.13333333333333333" stop-color="#d9dbdd"/>
      <stop offset="0.40784313725490196" stop-color="#969ea4"/>
      <stop offset="0.796078431372549" stop-color="#4a5a61"/>
      <stop offset="1.0" stop-color="#2f4248"/>
    </linearGradient>
    <linearGradient gradientTransform="matrix(1.0E-4, 0.0, 0.0, -1.0E-4, -1.95, 22.3)" gradientUnits="userSpaceOnUse" id="gradient17" spreadMethod="pad" x1="-819.2" x2="819.2">
      <stop offset="0.0" stop-color="#ffffff"/>
      <stop offset="0.13333333333333333" stop-color="#d9dbdd"/>
      <stop offset="0.40784313725490196" stop-color="#969ea4"/>
      <stop offset="0.796078431372549" stop-color="#4a5a61"/>
      <stop offset="1.0" stop-color="#2f4248"/>
    </linearGradient>
    <linearGradient gradientTransform="matrix(1.0E-4, 0.0, 0.0, -1.0E-4, -1.2, 22.3)" gradientUnits="userSpaceOnUse" id="gradient18" spreadMethod="pad" x1="-819.2" x2="819.2">
      <stop offset="0.0" stop-color="#ffffff"/>
      <stop offset="0.13333333333333333" stop-color="#d9dbdd"/>
      <stop offset="0.40784313725490196" stop-color="#969ea4"/>
      <stop offset="0.796078431372549" stop-color="#4a5a61"/>
      <stop offset="1.0" stop-color="#2f4248"/>
    </linearGradient>
    <linearGradient gradientTransform="matrix(1.0E-4, 0.0, 0.0, -1.0E-4, -0.45, 22.35)" gradientUnits="userSpaceOnUse" id="gradient19" spreadMethod="pad" x1="-819.2" x2="819.2">
      <stop offset="0.0" stop-color="#ffffff"/>
      <stop offset="0.13333333333333333" stop-color="#d9dbdd"/>
      <stop offset="0.40784313725490196" stop-color="#969ea4"/>
      <stop offset="0.796078431372549" stop-color="#4a5a61"/>
      <stop offset="1.0" stop-color="#2f4248"/>
    </linearGradient>
    <linearGradient gradientTransform="matrix(0.0032, 0.0, 0.0, -0.0031, 19.8, 47.85)" gradientUnits="userSpaceOnUse" id="gradient20" spreadMethod="pad" x1="-819.2" x2="819.2">
      <stop offset="0.0" stop-color="#ffffff"/>
      <stop offset="0.38823529411764707" stop-color="#f9fafa"/>
      <stop offset="0.5294117647058824" stop-color="#ebeced"/>
      <stop offset="0.6313725490196078" stop-color="#d9dbdd"/>
      <stop offset="0.7098039215686275" stop-color="#c1c6c9"/>
      <stop offset="0.7803921568627451" stop-color="#a6adb2"/>
      <stop offset="0.8431372549019608" stop-color="#879198"/>
      <stop offset="0.8980392156862745" stop-color="#68757c"/>
      <stop offset="0.9490196078431372" stop-color="#4b5b62"/>
      <stop offset="0.9921568627450981" stop-color="#32454b"/>
      <stop offset="1.0" stop-color="#2f4248"/>
    </linearGradient>
    <linearGradient gradientTransform="matrix(0.0, 0.0037, 0.0038, 0.0, -2.15, 59.75)" gradientUnits="userSpaceOnUse" id="gradient21" spreadMethod="pad" x1="-819.2" x2="819.2">
      <stop offset="0.0" stop-color="#ffffff"/>
      <stop offset="0.23137254901960785" stop-color="#a5acb2"/>
      <stop offset="0.4980392156862745" stop-color="#66737b"/>
      <stop offset="0.7254901960784313" stop-color="#45555c"/>
      <stop offset="0.8980392156862745" stop-color="#34474d"/>
      <stop offset="1.0" stop-color="#2f4248"/>
    </linearGradient>
    <linearGradient gradientTransform="matrix(0.0, 0.0018, 0.0018, 0.0, -2.2, 61.25)" gradientUnits="userSpaceOnUse" id="gradient22" spreadMethod="pad" x1="-819.2" x2="819.2">
      <stop offset="0.0" stop-color="#ffffff"/>
      <stop offset="0.23137254901960785" stop-color="#a5acb2"/>
      <stop offset="0.4980392156862745" stop-color="#66737b"/>
      <stop offset="0.7254901960784313" stop-color="#45555c"/>
      <stop offset="0.8980392156862745" stop-color="#34474d"/>
      <stop offset="1.0" stop-color="#2f4248"/>
    </linearGradient>
    <linearGradient gradientTransform="matrix(0.0127, 0.0, 0.0, 0.0051, -3.9, 37.6)" gradientUnits="userSpaceOnUse" id="gradient23" spreadMethod="pad" x1="-819.2" x2="819.2">
      <stop offset="0.0" stop-color="#00434f"/>
      <stop offset="0.5882352941176471" stop-color="#00272d"/>
      <stop offset="1.0" stop-color="#000000"/>
    </linearGradient>
    <linearGradient gradientTransform="matrix(0.0131, 0.0, 0.0, 0.0057, -3.95, 49.85)" gradientUnits="userSpaceOnUse" id="gradient24" spreadMethod="pad" x1="-819.2" x2="819.2">
      <stop offset="0.0" stop-color="#00434f"/>
      <stop offset="0.5882352941176471" stop-color="#00272d"/>
      <stop offset="1.0" stop-color="#000000"/>
    </linearGradient>
  </defs>
</svg>
