<?xml version="1.0" encoding="UTF-8" standalone="no"?>
<svg xmlns:xlink="http://www.w3.org/1999/xlink" height="10.2px" width="24.65px" xmlns="http://www.w3.org/2000/svg">
  <g transform="matrix(1, 0, 0, 1, 12.35, 5.1)">
    <path d="M-12.35 0.8 L-12.25 0.0 -2.6 -0.05 -3.1 0.65 -11.55 2.45 Q-12.3 1.65 -12.35 0.8 M-0.2 1.3 L-2.05 5.1 -4.75 4.9 -0.65 0.6 -0.2 1.3 M-1.8 1.15 L-7.2 4.5 -10.05 3.5 -1.65 0.4 -1.8 1.15 M-10.05 -2.4 L-1.9 -0.85 -2.75 -0.45 -11.5 -1.25 Q-10.95 -1.9 -10.05 -2.4 M-0.25 -0.8 L-1.2 -0.75 -7.7 -3.55 -4.3 -4.5 -0.25 -0.8 M1.35 0.5 L3.15 4.7 0.55 5.0 0.45 0.25 1.35 0.5 M6.15 4.05 L1.75 0.75 2.6 0.4 8.9 3.0 6.15 4.05 M4.35 -0.1 L12.3 -0.6 Q12.25 0.35 11.4 1.25 L3.95 0.6 4.35 -0.1 M1.0 -5.1 L0.85 -0.85 -0.05 -0.9 -1.75 -4.9 1.0 -5.1 M1.2 -1.05 L3.2 -5.05 6.0 -4.75 1.8 -0.45 1.2 -1.05 M3.25 -1.1 L8.35 -4.15 Q9.9 -3.65 10.9 -2.95 L3.35 -0.3 3.25 -1.1" fill="#333333" fill-rule="evenodd" stroke="none"/>
  </g>
</svg>
