<?xml version="1.0" encoding="UTF-8" standalone="no"?>
<svg xmlns:xlink="http://www.w3.org/1999/xlink" height="8.25px" width="14.95px" xmlns="http://www.w3.org/2000/svg">
  <g transform="matrix(1, 0, 0, 1, -0.85, -0.95)">
    <path d="M5.55 5.5 L5.3 6.25 4.75 6.8 3.8 7.0 Q2.95 7.0 2.5 6.55 2.1 6.2 2.0 5.35 L2.85 5.25 3.15 5.95 3.8 6.15 4.45 5.95 4.65 5.5 4.55 5.2 4.25 5.0 3.55 4.8 Q2.85 4.6 2.55 4.3 2.15 3.9 2.15 3.35 L2.35 2.65 2.9 2.15 3.75 2.0 Q4.6 2.0 4.95 2.4 5.4 2.8 5.4 3.45 L4.55 3.5 4.3 2.95 Q4.1 2.8 3.75 2.8 3.3 2.8 3.15 2.95 L3.0 3.25 3.1 3.55 3.95 3.9 4.9 4.25 5.35 4.7 5.55 5.5" fill="url(#gradient0)" fill-rule="evenodd" stroke="none"/>
    <path d="M7.65 6.9 L6.1 2.05 7.05 2.05 8.15 5.65 9.25 2.05 10.15 2.05 8.6 6.9 7.65 6.9" fill="url(#gradient1)" fill-rule="evenodd" stroke="none"/>
    <path d="M12.9 2.8 Q12.3 2.8 12.0 3.25 11.65 3.6 11.65 4.45 11.65 5.35 12.0 5.7 12.4 6.15 12.9 6.15 L13.45 6.05 13.95 5.75 13.95 5.15 12.9 5.15 12.9 4.3 14.8 4.3 14.8 6.25 Q14.65 6.5 14.0 6.75 L12.95 7.0 11.75 6.65 11.0 5.75 Q10.75 5.1 10.75 4.45 10.75 3.7 11.05 3.15 11.25 2.6 11.85 2.25 L12.9 2.0 Q13.7 2.0 14.2 2.35 14.7 2.75 14.75 3.4 L13.9 3.6 13.55 3.05 Q13.2 2.8 12.9 2.8" fill="url(#gradient2)" fill-rule="evenodd" stroke="none"/>
    <path d="M5.55 5.5 L5.3 6.25 4.75 6.8 3.8 7.0 Q2.95 7.0 2.5 6.55 2.1 6.2 2.0 5.35 L2.85 5.25 3.15 5.95 3.8 6.15 4.45 5.95 4.65 5.5 4.55 5.2 4.25 5.0 3.55 4.8 Q2.85 4.6 2.55 4.3 2.15 3.9 2.15 3.35 L2.35 2.65 2.9 2.15 3.75 2.0 Q4.6 2.0 4.95 2.4 5.4 2.8 5.4 3.45 L4.55 3.5 4.3 2.95 Q4.1 2.8 3.75 2.8 3.3 2.8 3.15 2.95 L3.0 3.25 3.1 3.55 3.95 3.9 4.9 4.25 5.35 4.7 5.55 5.5 Z" fill="none" stroke="url(#gradient3)" stroke-linecap="butt" stroke-linejoin="miter" stroke-width="2.0"/>
    <path d="M7.65 6.9 L6.1 2.05 7.05 2.05 8.15 5.65 9.25 2.05 10.15 2.05 8.6 6.9 7.65 6.9 Z" fill="none" stroke="url(#gradient4)" stroke-linecap="butt" stroke-linejoin="miter" stroke-width="2.0"/>
    <path d="M12.9 2.8 Q12.3 2.8 12.0 3.25 11.65 3.6 11.65 4.45 11.65 5.35 12.0 5.7 12.4 6.15 12.9 6.15 L13.45 6.05 13.95 5.75 13.95 5.15 12.9 5.15 12.9 4.3 14.8 4.3 14.8 6.25 Q14.65 6.5 14.0 6.75 L12.95 7.0 11.75 6.65 11.0 5.75 Q10.75 5.1 10.75 4.45 10.75 3.7 11.05 3.15 11.25 2.6 11.85 2.25 L12.9 2.0 Q13.7 2.0 14.2 2.35 14.7 2.75 14.75 3.4 L13.9 3.6 13.55 3.05 Q13.2 2.8 12.9 2.8 Z" fill="none" stroke="url(#gradient5)" stroke-linecap="butt" stroke-linejoin="miter" stroke-width="2.0"/>
  </g>
  <defs>
    <linearGradient gradientTransform="matrix(0.0, 0.0031, 0.0031, 0.0, 3.75, 4.5)" gradientUnits="userSpaceOnUse" id="gradient0" spreadMethod="pad" x1="-819.2" x2="819.2">
      <stop offset="0.0" stop-color="#6f737e"/>
      <stop offset="1.0" stop-color="#c8c9cf"/>
    </linearGradient>
    <linearGradient gradientTransform="matrix(0.0, 0.0029, 0.0029, 0.0, 8.15, 4.5)" gradientUnits="userSpaceOnUse" id="gradient1" spreadMethod="pad" x1="-819.2" x2="819.2">
      <stop offset="0.0" stop-color="#6f737e"/>
      <stop offset="1.0" stop-color="#c8c9cf"/>
    </linearGradient>
    <linearGradient gradientTransform="matrix(0.0, 0.0031, 0.0031, 0.0, 12.8, 4.5)" gradientUnits="userSpaceOnUse" id="gradient2" spreadMethod="pad" x1="-819.2" x2="819.2">
      <stop offset="0.0" stop-color="#6f737e"/>
      <stop offset="1.0" stop-color="#c8c9cf"/>
    </linearGradient>
    <linearGradient gradientTransform="matrix(0.0, 6.0E-4, 6.0E-4, 0.0, -1964.25, -566.0)" gradientUnits="userSpaceOnUse" id="gradient3" spreadMethod="pad" x1="-819.2" x2="819.2">
      <stop offset="0.0" stop-color="#6f737e"/>
      <stop offset="1.0" stop-color="#c8c9cf"/>
    </linearGradient>
    <linearGradient gradientTransform="matrix(0.0, 6.0E-4, 6.0E-4, 0.0, -1964.25, -566.0)" gradientUnits="userSpaceOnUse" id="gradient4" spreadMethod="pad" x1="-819.2" x2="819.2">
      <stop offset="0.0" stop-color="#6f737e"/>
      <stop offset="1.0" stop-color="#c8c9cf"/>
    </linearGradient>
    <linearGradient gradientTransform="matrix(0.0, 6.0E-4, 6.0E-4, 0.0, -1964.25, -566.0)" gradientUnits="userSpaceOnUse" id="gradient5" spreadMethod="pad" x1="-819.2" x2="819.2">
      <stop offset="0.0" stop-color="#6f737e"/>
      <stop offset="1.0" stop-color="#c8c9cf"/>
    </linearGradient>
  </defs>
</svg>
