<?xml version="1.0" encoding="UTF-8" standalone="no"?>
<svg xmlns:xlink="http://www.w3.org/1999/xlink" height="5.6px" width="13.4px" xmlns="http://www.w3.org/2000/svg">
  <g transform="matrix(1, 0, 0, 1, -0.3, -0.9)">
    <path d="M2.9 2.15 L2.35 2.0 Q1.9 2.0 1.75 2.15 L1.6 2.45 1.7 2.75 2.55 3.1 3.5 3.45 3.95 3.9 4.15 4.7 3.9 5.45 3.35 6.0 2.4 6.2 Q1.55 6.2 1.1 5.75 0.7 5.4 0.6 4.55 L1.45 4.45 1.75 5.15 2.4 5.35 3.05 5.15 3.25 4.7 3.15 4.4 2.85 4.2 2.15 4.0 Q1.45 3.8 1.15 3.5 0.75 3.1 0.75 2.55 L0.95 1.85 1.5 1.35 2.35 1.2 Q3.2 1.2 3.55 1.6 4.0 2.0 4.0 2.65 L3.15 2.7 2.9 2.15 Z" fill="none" stroke="url(#gradient0)" stroke-linecap="round" stroke-linejoin="round" stroke-width="0.6000000000000001"/>
    <path d="M6.25 6.1 L4.7 1.25 5.65 1.25 6.75 4.85 7.85 1.25 8.75 1.25 7.2 6.1 6.25 6.1 Z" fill="none" stroke="url(#gradient1)" stroke-linecap="round" stroke-linejoin="round" stroke-width="0.6000000000000001"/>
    <path d="M13.35 2.6 L12.5 2.8 12.15 2.25 11.5 2.0 Q10.9 2.0 10.6 2.45 10.25 2.8 10.25 3.65 10.25 4.55 10.6 4.9 11.0 5.35 11.5 5.35 L12.05 5.25 12.55 4.95 12.55 4.35 11.5 4.35 11.5 3.5 13.4 3.5 13.4 5.45 12.6 5.95 11.55 6.2 10.35 5.85 9.6 4.95 9.35 3.65 Q9.35 2.9 9.65 2.35 9.85 1.8 10.45 1.45 10.85 1.2 11.5 1.2 12.3 1.2 12.8 1.55 13.3 1.95 13.35 2.6 Z" fill="none" stroke="url(#gradient2)" stroke-linecap="round" stroke-linejoin="round" stroke-width="0.6000000000000001"/>
  </g>
  <defs>
    <linearGradient gradientTransform="matrix(0.0, 6.0E-4, 6.0E-4, 0.0, -1965.65, -566.8)" gradientUnits="userSpaceOnUse" id="gradient0" spreadMethod="pad" x1="-819.2" x2="819.2">
      <stop offset="0.0" stop-color="#6f737e" stop-opacity="0.0"/>
      <stop offset="1.0" stop-color="#ffffff"/>
    </linearGradient>
    <linearGradient gradientTransform="matrix(0.0, 6.0E-4, 6.0E-4, 0.0, -1965.65, -566.8)" gradientUnits="userSpaceOnUse" id="gradient1" spreadMethod="pad" x1="-819.2" x2="819.2">
      <stop offset="0.0" stop-color="#6f737e" stop-opacity="0.0"/>
      <stop offset="1.0" stop-color="#ffffff"/>
    </linearGradient>
    <linearGradient gradientTransform="matrix(0.0, 6.0E-4, 6.0E-4, 0.0, -1965.65, -566.8)" gradientUnits="userSpaceOnUse" id="gradient2" spreadMethod="pad" x1="-819.2" x2="819.2">
      <stop offset="0.0" stop-color="#6f737e" stop-opacity="0.0"/>
      <stop offset="1.0" stop-color="#ffffff"/>
    </linearGradient>
  </defs>
</svg>
