<?xml version="1.0" encoding="UTF-8" standalone="no"?>
<svg xmlns:xlink="http://www.w3.org/1999/xlink" height="26.1px" width="132.7px" xmlns="http://www.w3.org/2000/svg">
  <g transform="matrix(1, 0, 0, 1, -371.9, -456.95)">
    <path d="M504.45 478.85 L504.6 483.05 371.9 483.05 371.9 478.5 381.2 457.15 499.5 457.65 504.45 478.85" fill="#4d4232" fill-rule="evenodd" stroke="none"/>
    <path d="M501.35 456.95 L504.6 478.95 372.3 479.3 372.3 477.75 381.2 456.95 501.35 456.95" fill="url(#gradient0)" fill-rule="evenodd" stroke="none"/>
    <path d="M498.95 462.3 L501.05 477.4 479.4 477.25 478.5 462.95 498.95 462.3" fill="#393025" fill-rule="evenodd" stroke="none"/>
    <path d="M475.9 460.55 L476.15 467.6 461.05 467.6 461.05 460.55 475.9 460.55" fill="#393025" fill-rule="evenodd" stroke="none"/>
    <path d="M471.2 473.8 L476.35 474.0 476.6 477.25 460.75 477.15 460.75 474.3 466.0 474.3 466.3 472.1 471.2 472.4 471.2 473.8" fill="#393025" fill-rule="evenodd" stroke="none"/>
    <path d="M458.3 462.3 L437.35 462.2 437.35 459.95 458.3 460.1 458.3 462.3" fill="#393025" fill-rule="evenodd" stroke="none"/>
    <path d="M436.0 462.55 L414.15 462.4 414.95 460.1 435.95 460.1 436.0 462.55" fill="#393025" fill-rule="evenodd" stroke="none"/>
    <path d="M412.1 462.4 L390.8 462.3 391.65 460.1 412.65 459.9 412.1 462.4" fill="#393025" fill-rule="evenodd" stroke="none"/>
    <path d="M387.9 459.55 L387.05 462.4 381.95 462.4 382.9 459.6 387.9 459.55" fill="#393025" fill-rule="evenodd" stroke="none"/>
    <path d="M457.75 476.95 L457.1 477.6 377.65 477.6 376.3 476.7 381.5 462.75 458.8 463.05 457.75 476.95" fill="#393025" fill-rule="evenodd" stroke="none"/>
    <path d="M451.3 474.8 L451.95 473.65 451.95 474.65 456.5 474.65 457.4 476.9 451.25 477.05 451.3 474.8" fill="#574b36" fill-rule="evenodd" stroke="none"/>
    <path d="M396.25 474.55 L396.45 476.6 390.25 476.75 391.0 474.65 392.0 473.65 391.7 474.55 396.25 474.55" fill="#574b36" fill-rule="evenodd" stroke="none"/>
    <path d="M449.85 474.4 L451.1 476.7 444.85 476.8 445.2 473.45 445.35 474.4 449.85 474.4" fill="#574b36" fill-rule="evenodd" stroke="none"/>
    <path d="M384.4 474.4 L385.4 473.45 385.15 474.35 389.65 474.35 390.25 476.4 384.05 476.55 384.4 474.4" fill="#574b36" fill-rule="evenodd" stroke="none"/>
    <path d="M438.2 474.5 L438.4 473.45 438.6 474.4 443.05 474.4 444.35 476.7 438.2 476.8 438.2 474.5" fill="#574b36" fill-rule="evenodd" stroke="none"/>
    <path d="M377.65 474.4 L378.6 473.45 378.4 474.35 382.9 474.35 383.45 476.4 377.25 476.55 377.65 474.4" fill="#574b36" fill-rule="evenodd" stroke="none"/>
    <path d="M436.8 474.4 L438.05 476.7 431.9 476.8 431.6 474.5 432.15 473.45 432.35 474.4 436.8 474.4" fill="#574b36" fill-rule="evenodd" stroke="none"/>
    <path d="M451.95 473.7 L456.75 473.7 456.75 474.95 451.9 474.85 451.95 473.7" fill="#99744b" fill-rule="evenodd" stroke="none"/>
    <path d="M396.45 474.95 L391.65 474.85 392.05 473.7 396.8 473.7 396.45 474.95" fill="#99744b" fill-rule="evenodd" stroke="none"/>
    <path d="M450.0 473.45 L450.2 474.7 445.35 474.55 445.25 473.45 450.0 473.45" fill="#99744b" fill-rule="evenodd" stroke="none"/>
    <path d="M390.1 473.45 L389.95 474.7 385.05 474.55 385.4 473.45 390.1 473.45" fill="#99744b" fill-rule="evenodd" stroke="none"/>
    <path d="M443.2 473.45 L443.45 474.7 438.55 474.55 438.5 473.45 443.2 473.45" fill="#99744b" fill-rule="evenodd" stroke="none"/>
    <path d="M383.4 473.45 L383.2 474.7 378.3 474.55 378.6 473.45 383.4 473.45" fill="#99744b" fill-rule="evenodd" stroke="none"/>
    <path d="M437.15 474.7 L432.25 474.55 432.2 473.45 436.95 473.45 437.15 474.7" fill="#99744b" fill-rule="evenodd" stroke="none"/>
    <path d="M456.85 475.15 L456.85 473.7 457.4 474.55 457.4 476.6 456.85 475.15" fill="#ca9b7f" fill-rule="evenodd" stroke="none"/>
    <path d="M396.45 475.15 L396.85 473.7 397.25 474.55 396.6 476.6 396.45 475.15" fill="#ca9b7f" fill-rule="evenodd" stroke="none"/>
    <path d="M450.0 474.85 L450.05 473.45 450.75 474.3 450.85 476.8 450.0 474.85" fill="#ca9b7f" fill-rule="evenodd" stroke="none"/>
    <path d="M389.95 474.85 L390.25 473.45 390.65 474.3 390.3 476.4 389.95 474.85" fill="#ca9b7f" fill-rule="evenodd" stroke="none"/>
    <path d="M443.5 474.85 L443.35 473.45 444.0 474.3 444.2 476.8 443.5 474.85" fill="#ca9b7f" fill-rule="evenodd" stroke="none"/>
    <path d="M383.25 474.85 L383.45 473.45 383.9 474.3 383.5 476.4 383.25 474.85" fill="#ca9b7f" fill-rule="evenodd" stroke="none"/>
    <path d="M437.25 474.85 L437.05 473.45 437.7 474.3 437.7 476.6 437.25 474.85" fill="#ca9b7f" fill-rule="evenodd" stroke="none"/>
    <path d="M443.65 472.4 L444.2 471.3 444.1 472.45 457.05 472.6 457.05 473.45 443.65 473.45 443.65 472.4" fill="#574b36" fill-rule="evenodd" stroke="none"/>
    <path d="M456.9 471.15 L456.9 472.65 444.05 472.65 444.35 471.15 456.9 471.15" fill="#99744b" fill-rule="evenodd" stroke="none"/>
    <path d="M456.9 472.65 L456.9 471.3 457.4 471.7 457.4 473.45 456.9 472.65" fill="#ca9b7f" fill-rule="evenodd" stroke="none"/>
    <path d="M457.05 470.2 L457.05 470.95 446.55 470.75 446.55 469.05 447.3 468.3 447.25 470.05 457.05 470.2" fill="#574b36" fill-rule="evenodd" stroke="none"/>
    <path d="M456.95 470.2 L447.15 470.2 447.3 468.4 456.95 468.5 456.95 470.2" fill="#99744b" fill-rule="evenodd" stroke="none"/>
    <path d="M456.9 470.2 L456.95 468.55 457.55 469.2 457.55 470.9 456.9 470.2" fill="#ca9b7f" fill-rule="evenodd" stroke="none"/>
    <path d="M438.55 472.3 L439.0 471.25 438.85 472.5 442.3 472.6 442.3 473.3 438.55 473.4 438.55 472.3" fill="#8a6f53" fill-rule="evenodd" stroke="none"/>
    <path d="M441.95 469.6 L442.35 468.55 442.25 469.85 445.65 469.9 445.65 470.6 441.95 470.7 441.95 469.6" fill="#8a6f53" fill-rule="evenodd" stroke="none"/>
    <path d="M445.55 467.75 L445.55 466.65 445.95 465.65 445.9 466.95 449.3 467.0 449.3 467.65 445.55 467.75" fill="#8a6f53" fill-rule="evenodd" stroke="none"/>
    <path d="M442.45 463.75 L442.85 462.75 442.7 464.0 446.2 464.05 446.2 464.75 442.45 464.85 442.45 463.75" fill="#8a6f53" fill-rule="evenodd" stroke="none"/>
    <path d="M457.45 463.9 L457.45 464.55 448.7 464.6 448.7 463.55 449.7 462.55 449.45 463.85 457.45 463.9" fill="#8a6f53" fill-rule="evenodd" stroke="none"/>
    <path d="M437.35 472.6 L437.35 473.3 433.6 473.4 433.6 472.3 434.05 471.25 433.95 472.5 437.35 472.6" fill="#8a6f53" fill-rule="evenodd" stroke="none"/>
    <path d="M437.0 469.6 L437.45 468.55 437.3 469.85 440.75 469.9 440.75 470.6 437.0 470.7 437.0 469.6" fill="#8a6f53" fill-rule="evenodd" stroke="none"/>
    <path d="M440.6 466.65 L441.0 465.65 440.95 466.95 444.35 467.0 444.35 467.65 440.6 467.75 440.6 466.65" fill="#8a6f53" fill-rule="evenodd" stroke="none"/>
    <path d="M437.5 463.75 L437.9 462.75 437.8 464.0 441.25 464.05 441.25 464.75 437.5 464.85 437.5 463.75" fill="#8a6f53" fill-rule="evenodd" stroke="none"/>
    <path d="M457.3 467.15 L457.3 467.8 451.75 467.85 451.75 466.8 452.4 465.75 452.2 467.1 457.3 467.15" fill="#8a6f53" fill-rule="evenodd" stroke="none"/>
    <path d="M382.75 460.8 L383.45 459.55 383.05 461.1 386.85 461.15 386.7 461.95 382.55 462.0 382.75 460.8" fill="#574b36" fill-rule="evenodd" stroke="none"/>
    <path d="M427.75 472.3 L428.15 471.25 428.05 472.5 431.5 472.6 431.5 473.3 427.75 473.4 427.75 472.3" fill="#8a6f53" fill-rule="evenodd" stroke="none"/>
    <path d="M431.15 469.6 L431.6 468.55 431.45 469.85 434.9 469.9 434.9 470.6 431.15 470.7 431.15 469.6" fill="#8a6f53" fill-rule="evenodd" stroke="none"/>
    <path d="M438.5 467.0 L438.5 467.65 434.75 467.75 434.75 466.65 435.15 465.65 435.05 466.95 438.5 467.0" fill="#8a6f53" fill-rule="evenodd" stroke="none"/>
    <path d="M431.65 463.75 L432.05 462.75 431.9 464.0 435.3 464.05 435.3 464.75 431.65 464.85 431.65 463.75" fill="#8a6f53" fill-rule="evenodd" stroke="none"/>
    <path d="M490.45 473.05 L490.35 472.05 490.55 470.9 490.7 472.25 494.2 472.3 494.35 473.0 490.45 473.05" fill="#8a6f53" fill-rule="evenodd" stroke="none"/>
    <path d="M496.1 475.5 L496.3 473.95 496.55 475.85 500.05 475.9 500.3 476.9 496.4 477.05 496.1 475.5" fill="#574b36" fill-rule="evenodd" stroke="none"/>
    <path d="M490.05 469.15 L490.25 468.05 490.4 469.4 494.0 469.4 494.1 470.1 490.2 470.2 490.05 469.15" fill="#8a6f53" fill-rule="evenodd" stroke="none"/>
    <path d="M495.9 472.95 L495.65 471.4 495.85 469.9 496.05 471.75 499.6 471.9 499.8 472.85 495.9 472.95" fill="#574b36" fill-rule="evenodd" stroke="none"/>
    <path d="M472.15 466.5 L472.4 465.4 472.5 466.75 476.1 466.8 476.15 467.5 472.35 467.6 472.15 466.5" fill="#574b36" fill-rule="evenodd" stroke="none"/>
    <path d="M471.7 475.55 L472.15 474.5 472.0 475.85 475.6 475.9 475.6 476.6 471.7 476.6 471.7 475.55" fill="#574b36" fill-rule="evenodd" stroke="none"/>
    <path d="M489.55 466.25 L489.75 465.2 489.9 466.5 493.45 466.6 493.6 467.3 489.75 467.4 489.55 466.25" fill="#8a6f53" fill-rule="evenodd" stroke="none"/>
    <path d="M499.35 467.8 L499.6 468.8 495.7 468.95 495.5 467.4 495.65 465.85 495.85 467.75 499.35 467.8" fill="#574b36" fill-rule="evenodd" stroke="none"/>
    <path d="M472.15 463.65 L472.4 462.55 472.5 463.9 476.1 464.0 476.15 464.6 472.35 464.7 472.15 463.65" fill="#574b36" fill-rule="evenodd" stroke="none"/>
    <path d="M489.55 463.4 L489.7 462.3 489.85 463.65 493.35 463.7 493.5 464.4 489.65 464.5 489.55 463.4" fill="#574b36" fill-rule="evenodd" stroke="none"/>
    <path d="M498.6 463.75 L498.8 464.75 494.9 464.85 494.65 463.3 494.85 461.8 495.05 463.7 498.6 463.75" fill="#574b36" fill-rule="evenodd" stroke="none"/>
    <path d="M490.7 475.35 L490.85 473.8 491.05 475.7 494.65 475.75 494.75 476.75 491.0 476.9 490.7 475.35" fill="#8a6f53" fill-rule="evenodd" stroke="none"/>
    <path d="M489.1 475.75 L489.2 476.75 479.8 476.9 479.75 474.85 480.45 473.3 480.4 475.7 489.1 475.75" fill="#8a6f53" fill-rule="evenodd" stroke="none"/>
    <path d="M472.05 461.15 L472.25 460.05 472.4 461.4 475.95 461.45 476.1 462.15 472.2 462.2 472.05 461.15" fill="#574b36" fill-rule="evenodd" stroke="none"/>
    <path d="M426.15 472.6 L426.05 473.3 422.3 473.4 422.5 472.3 423.05 471.25 422.75 472.5 426.15 472.6" fill="#8a6f53" fill-rule="evenodd" stroke="none"/>
    <path d="M425.85 469.6 L426.4 468.55 426.15 469.85 429.5 469.9 429.45 470.6 425.7 470.7 425.85 469.6" fill="#8a6f53" fill-rule="evenodd" stroke="none"/>
    <path d="M429.45 466.65 L430.05 465.65 429.75 466.95 433.2 467.0 433.05 467.65 429.4 467.75 429.45 466.65" fill="#8a6f53" fill-rule="evenodd" stroke="none"/>
    <path d="M426.35 463.75 L426.95 462.75 426.6 464.0 430.05 464.05 429.95 464.95 426.2 464.85 426.35 463.75" fill="#8a6f53" fill-rule="evenodd" stroke="none"/>
    <path d="M484.9 473.05 L484.85 472.05 485.2 470.9 485.2 472.25 488.7 472.3 488.8 473.0 484.9 473.05" fill="#8a6f53" fill-rule="evenodd" stroke="none"/>
    <path d="M484.55 469.15 L484.9 468.05 484.9 469.4 488.45 469.4 488.5 470.1 484.65 470.2 484.55 469.15" fill="#8a6f53" fill-rule="evenodd" stroke="none"/>
    <path d="M466.7 466.5 L467.05 465.4 467.0 466.75 470.6 466.8 470.6 467.5 466.7 467.6 466.7 466.5" fill="#574b36" fill-rule="evenodd" stroke="none"/>
    <path d="M466.4 475.55 L466.75 474.5 466.7 475.85 470.3 475.9 470.3 476.6 466.4 476.6 466.4 475.55" fill="#574b36" fill-rule="evenodd" stroke="none"/>
    <path d="M484.05 466.25 L484.45 465.2 484.4 466.5 487.95 466.6 488.1 467.3 484.1 467.4 484.05 466.25" fill="#8a6f53" fill-rule="evenodd" stroke="none"/>
    <path d="M466.7 463.65 L467.05 462.55 467.0 463.9 470.6 464.0 470.6 464.6 466.7 464.7 466.7 463.65" fill="#574b36" fill-rule="evenodd" stroke="none"/>
    <path d="M466.4 472.65 L466.75 471.6 466.7 472.95 470.3 473.0 470.3 473.7 466.4 473.8 466.4 472.65" fill="#574b36" fill-rule="evenodd" stroke="none"/>
    <path d="M484.0 463.4 L484.35 462.3 484.35 463.65 487.85 463.7 487.85 464.4 484.05 464.5 484.0 463.4" fill="#574b36" fill-rule="evenodd" stroke="none"/>
    <path d="M466.55 461.15 L466.95 460.05 466.95 461.4 470.45 461.45 470.5 462.15 466.6 462.2 466.55 461.15" fill="#574b36" fill-rule="evenodd" stroke="none"/>
    <path d="M417.6 472.3 L418.2 471.25 417.85 472.5 421.3 472.6 421.2 473.3 417.45 473.4 417.6 472.3" fill="#8a6f53" fill-rule="evenodd" stroke="none"/>
    <path d="M421.0 469.6 L421.55 468.55 421.3 469.85 424.65 469.9 424.6 470.6 420.85 470.7 421.0 469.6" fill="#8a6f53" fill-rule="evenodd" stroke="none"/>
    <path d="M424.45 467.75 L424.6 466.65 425.15 465.65 424.85 466.95 428.25 467.0 428.15 467.65 424.45 467.75" fill="#8a6f53" fill-rule="evenodd" stroke="none"/>
    <path d="M421.5 463.75 L422.05 462.75 421.75 464.0 425.15 464.05 425.05 464.75 421.35 464.85 421.5 463.75" fill="#8a6f53" fill-rule="evenodd" stroke="none"/>
    <path d="M479.8 473.05 L479.75 472.05 480.2 470.9 480.1 472.25 483.65 472.3 483.8 473.0 479.8 473.05" fill="#8a6f53" fill-rule="evenodd" stroke="none"/>
    <path d="M479.45 469.15 L479.9 468.05 479.8 469.4 483.35 469.4 483.45 470.1 479.55 470.2 479.45 469.15" fill="#8a6f53" fill-rule="evenodd" stroke="none"/>
    <path d="M461.6 466.5 L461.95 465.4 461.9 466.75 465.5 466.8 465.5 467.5 461.7 467.6 461.6 466.5" fill="#574b36" fill-rule="evenodd" stroke="none"/>
    <path d="M461.0 475.55 L461.7 474.5 461.3 475.85 464.8 475.9 465.05 476.6 460.75 476.6 461.0 475.55" fill="#574b36" fill-rule="evenodd" stroke="none"/>
    <path d="M479.05 466.25 L479.4 465.2 479.35 466.5 482.85 466.6 482.9 467.3 479.05 467.4 479.05 466.25" fill="#8a6f53" fill-rule="evenodd" stroke="none"/>
    <path d="M461.6 463.65 L461.95 462.55 461.9 463.9 465.5 464.0 465.5 464.6 461.7 464.7 461.6 463.65" fill="#574b36" fill-rule="evenodd" stroke="none"/>
    <path d="M478.9 463.4 L479.35 462.3 479.25 463.65 482.8 463.7 482.85 464.4 479.0 464.5 478.9 463.4" fill="#574b36" fill-rule="evenodd" stroke="none"/>
    <path d="M461.5 461.15 L461.9 460.05 461.85 461.4 465.4 461.45 465.45 462.15 461.55 462.2 461.5 461.15" fill="#574b36" fill-rule="evenodd" stroke="none"/>
    <path d="M412.2 472.4 L412.85 471.3 412.45 472.6 415.85 472.65 415.7 473.4 411.95 473.4 412.2 472.4" fill="#8a6f53" fill-rule="evenodd" stroke="none"/>
    <path d="M415.55 469.7 L416.2 468.65 415.85 469.9 419.2 469.95 419.1 470.7 415.35 470.7 415.55 469.7" fill="#8a6f53" fill-rule="evenodd" stroke="none"/>
    <path d="M419.15 466.75 L419.85 465.65 419.45 467.0 422.85 467.1 422.7 467.75 418.95 467.8 419.15 466.75" fill="#8a6f53" fill-rule="evenodd" stroke="none"/>
    <path d="M416.05 463.85 L416.7 462.8 416.3 464.05 419.75 464.1 419.6 464.85 415.85 464.9 416.05 463.85" fill="#8a6f53" fill-rule="evenodd" stroke="none"/>
    <path d="M412.2 472.4 L412.85 471.3 412.45 472.6 415.85 472.65 415.7 473.4 411.95 473.4 412.2 472.4" fill="#8a6f53" fill-rule="evenodd" stroke="none"/>
    <path d="M415.55 469.7 L416.2 468.65 415.85 469.9 419.2 469.95 419.1 470.7 415.35 470.7 415.55 469.7" fill="#8a6f53" fill-rule="evenodd" stroke="none"/>
    <path d="M419.15 466.75 L419.85 465.65 419.45 467.0 422.85 467.1 422.7 467.75 418.95 467.8 419.15 466.75" fill="#8a6f53" fill-rule="evenodd" stroke="none"/>
    <path d="M416.05 463.85 L416.7 462.8 416.3 464.05 419.75 464.1 419.6 464.85 415.85 464.9 416.05 463.85" fill="#8a6f53" fill-rule="evenodd" stroke="none"/>
    <path d="M406.9 472.4 L407.55 471.3 407.15 472.6 410.55 472.65 410.4 473.4 406.65 473.4 406.9 472.4" fill="#8a6f53" fill-rule="evenodd" stroke="none"/>
    <path d="M410.25 469.7 L410.9 468.65 410.55 469.9 413.95 469.95 413.8 470.7 410.05 470.7 410.25 469.7" fill="#8a6f53" fill-rule="evenodd" stroke="none"/>
    <path d="M417.55 467.1 L417.4 467.75 413.65 467.8 413.85 466.75 414.55 465.65 414.15 467.0 417.55 467.1" fill="#8a6f53" fill-rule="evenodd" stroke="none"/>
    <path d="M410.75 463.85 L411.4 462.8 411.0 464.05 414.45 464.1 414.2 464.85 410.55 464.9 410.75 463.85" fill="#8a6f53" fill-rule="evenodd" stroke="none"/>
    <path d="M431.5 461.15 L431.9 460.1 431.8 461.4 435.15 461.45 435.15 462.15 431.45 462.2 431.5 461.15" fill="#574b36" fill-rule="evenodd" stroke="none"/>
    <path d="M457.8 461.15 L457.75 461.85 454.1 461.95 454.15 460.85 454.65 459.85 454.4 461.1 457.8 461.15" fill="#8a6f53" fill-rule="evenodd" stroke="none"/>
    <path d="M408.1 460.85 L408.8 459.85 408.35 461.15 411.75 461.2 411.6 461.85 407.9 461.95 408.1 460.85" fill="#8a6f53" fill-rule="evenodd" stroke="none"/>
    <path d="M400.95 473.3 L401.15 472.25 401.8 471.15 401.45 472.5 404.85 472.5 404.7 473.25 400.95 473.3" fill="#8a6f53" fill-rule="evenodd" stroke="none"/>
    <path d="M404.55 469.55 L405.2 468.5 404.75 469.85 408.2 469.85 408.1 470.55 404.35 470.6 404.55 469.55" fill="#8a6f53" fill-rule="evenodd" stroke="none"/>
    <path d="M408.15 466.65 L408.85 465.6 408.45 466.85 411.8 466.95 411.65 467.65 407.95 467.65 408.15 466.65" fill="#8a6f53" fill-rule="evenodd" stroke="none"/>
    <path d="M405.05 463.7 L405.7 462.65 405.25 464.0 408.7 464.05 408.5 464.7 404.85 464.75 405.05 463.7" fill="#8a6f53" fill-rule="evenodd" stroke="none"/>
    <path d="M425.7 461.0 L426.2 459.95 426.05 461.3 429.45 461.4 429.4 462.0 425.7 462.1 425.7 461.0" fill="#574b36" fill-rule="evenodd" stroke="none"/>
    <path d="M448.35 460.75 L448.9 459.65 448.7 461.0 452.1 461.1 452.05 461.75 448.3 461.8 448.35 460.75" fill="#8a6f53" fill-rule="evenodd" stroke="none"/>
    <path d="M402.35 460.8 L403.0 459.75 402.65 461.0 406.0 461.1 405.9 461.8 402.15 461.85 402.35 460.8" fill="#8a6f53" fill-rule="evenodd" stroke="none"/>
    <path d="M395.5 473.3 L395.8 472.25 396.45 471.15 396.0 472.5 399.4 472.5 399.25 473.25 395.5 473.3" fill="#8a6f53" fill-rule="evenodd" stroke="none"/>
    <path d="M399.2 469.55 L399.8 468.5 399.4 469.85 402.8 469.85 402.65 470.55 398.9 470.6 399.2 469.55" fill="#8a6f53" fill-rule="evenodd" stroke="none"/>
    <path d="M402.8 466.65 L403.5 465.6 403.0 466.85 406.45 466.95 406.25 467.65 402.5 467.65 402.8 466.65" fill="#8a6f53" fill-rule="evenodd" stroke="none"/>
    <path d="M399.6 463.7 L400.35 462.65 399.9 464.0 403.3 464.05 403.15 464.7 399.4 464.75 399.6 463.7" fill="#8a6f53" fill-rule="evenodd" stroke="none"/>
    <path d="M420.35 461.0 L420.85 459.95 420.65 461.3 424.1 461.4 424.05 462.0 420.3 462.1 420.35 461.0" fill="#574b36" fill-rule="evenodd" stroke="none"/>
    <path d="M443.0 460.75 L443.55 459.65 443.3 461.0 446.65 461.1 446.6 461.75 442.9 461.8 443.0 460.75" fill="#8a6f53" fill-rule="evenodd" stroke="none"/>
    <path d="M397.0 460.8 L397.7 459.75 397.25 461.0 400.6 461.1 400.45 461.8 396.7 461.85 397.0 460.8" fill="#8a6f53" fill-rule="evenodd" stroke="none"/>
    <path d="M390.5 472.3 L391.25 471.25 390.8 472.5 394.2 472.6 394.05 473.3 390.3 473.4 390.5 472.3" fill="#8a6f53" fill-rule="evenodd" stroke="none"/>
    <path d="M397.55 469.9 L397.45 470.6 393.7 470.7 393.9 469.6 394.7 468.55 394.2 469.85 397.55 469.9" fill="#8a6f53" fill-rule="evenodd" stroke="none"/>
    <path d="M397.55 466.65 L398.2 465.65 397.8 466.95 401.15 467.0 401.0 467.65 397.3 467.75 397.55 466.65" fill="#8a6f53" fill-rule="evenodd" stroke="none"/>
    <path d="M394.4 463.75 L395.1 462.75 394.7 464.0 398.05 464.05 397.85 464.75 394.1 464.85 394.4 463.75" fill="#8a6f53" fill-rule="evenodd" stroke="none"/>
    <path d="M379.8 469.35 L380.35 468.8 380.0 470.1 386.8 470.2 386.8 470.85 379.4 470.9 379.8 469.35" fill="#574b36" fill-rule="evenodd" stroke="none"/>
    <path d="M388.95 472.4 L388.9 472.85 378.2 473.05 378.8 471.75 379.6 471.25 379.1 472.3 388.95 472.4" fill="#574b36" fill-rule="evenodd" stroke="none"/>
    <path d="M380.3 467.15 L380.95 466.4 380.55 467.45 387.0 467.5 386.95 468.05 380.0 468.15 380.3 467.15" fill="#574b36" fill-rule="evenodd" stroke="none"/>
    <path d="M415.15 461.1 L415.65 460.05 415.4 461.3 418.8 461.4 418.8 462.1 415.05 462.15 415.15 461.1" fill="#574b36" fill-rule="evenodd" stroke="none"/>
    <path d="M437.8 460.8 L438.35 459.75 438.05 461.1 441.45 461.1 441.35 461.8 437.65 461.85 437.8 460.8" fill="#8a6f53" fill-rule="evenodd" stroke="none"/>
    <path d="M395.35 461.15 L395.25 461.8 391.5 461.85 391.7 460.85 392.4 459.85 392.0 461.1 395.35 461.15" fill="#8a6f53" fill-rule="evenodd" stroke="none"/>
    <path d="M388.9 469.35 L389.6 468.35 389.15 469.6 392.55 469.7 392.4 470.35 388.7 470.4 388.9 469.35" fill="#8a6f53" fill-rule="evenodd" stroke="none"/>
    <path d="M388.4 466.65 L389.05 465.6 388.6 466.95 392.0 466.95 391.85 467.65 388.1 467.75 388.4 466.65" fill="#8a6f53" fill-rule="evenodd" stroke="none"/>
    <path d="M397.0 466.95 L396.85 467.65 393.15 467.75 393.4 466.65 394.05 465.6 393.6 466.95 397.0 466.95" fill="#8a6f53" fill-rule="evenodd" stroke="none"/>
    <path d="M389.95 464.1 L390.65 463.05 390.25 464.4 393.6 464.5 393.5 465.1 389.75 465.2 389.95 464.1" fill="#8a6f53" fill-rule="evenodd" stroke="none"/>
    <path d="M385.85 464.0 L386.5 462.95 386.05 464.3 389.45 464.3 389.3 464.95 385.6 465.05 385.85 464.0" fill="#8a6f53" fill-rule="evenodd" stroke="none"/>
    <path d="M381.55 464.1 L382.25 463.05 381.85 464.4 385.2 464.5 385.05 465.1 381.35 465.2 381.55 464.1" fill="#8a6f53" fill-rule="evenodd" stroke="none"/>
    <path d="M442.15 471.15 L442.15 472.6 438.9 472.6 438.9 471.15 442.15 471.15" fill="#d2b09b" fill-rule="evenodd" stroke="none"/>
    <path d="M445.55 468.5 L445.55 469.9 442.3 469.9 442.3 468.5 445.55 468.5" fill="#d2b09b" fill-rule="evenodd" stroke="none"/>
    <path d="M449.15 465.6 L449.15 467.0 445.95 467.0 445.95 465.6 449.15 465.6" fill="#d2b09b" fill-rule="evenodd" stroke="none"/>
    <path d="M446.0 462.65 L446.0 464.05 442.8 464.05 442.8 462.65 446.0 462.65" fill="#d2b09b" fill-rule="evenodd" stroke="none"/>
    <path d="M457.1 463.9 L449.55 463.9 449.55 462.5 457.1 462.5 457.1 463.9" fill="#d2b09b" fill-rule="evenodd" stroke="none"/>
    <path d="M437.25 472.6 L433.95 472.6 433.95 471.15 437.25 471.15 437.25 472.6" fill="#d2b09b" fill-rule="evenodd" stroke="none"/>
    <path d="M440.6 468.5 L440.6 469.9 437.35 469.9 437.35 468.5 440.6 468.5" fill="#d2b09b" fill-rule="evenodd" stroke="none"/>
    <path d="M444.2 465.6 L444.2 467.0 441.0 467.0 441.0 465.6 444.2 465.6" fill="#d2b09b" fill-rule="evenodd" stroke="none"/>
    <path d="M441.1 462.65 L441.1 464.05 437.85 464.05 437.85 462.65 441.1 462.65" fill="#d2b09b" fill-rule="evenodd" stroke="none"/>
    <path d="M457.1 467.15 L452.25 467.15 452.25 465.65 457.1 465.65 457.1 467.15" fill="#d2b09b" fill-rule="evenodd" stroke="none"/>
    <path d="M383.4 459.45 L387.05 459.45 386.8 461.15 382.9 461.15 383.3 459.85 383.4 459.45" fill="#99744b" fill-rule="evenodd" stroke="none"/>
    <path d="M431.35 471.15 L431.35 472.6 428.1 472.6 428.1 471.15 431.35 471.15" fill="#d2b09b" fill-rule="evenodd" stroke="none"/>
    <path d="M434.75 468.5 L434.75 469.9 431.5 469.9 431.5 468.5 434.75 468.5" fill="#d2b09b" fill-rule="evenodd" stroke="none"/>
    <path d="M438.35 467.0 L435.1 467.0 435.1 465.6 438.35 465.6 438.35 467.0" fill="#d2b09b" fill-rule="evenodd" stroke="none"/>
    <path d="M435.25 462.65 L435.25 464.05 432.0 464.05 432.0 462.65 435.25 462.65" fill="#d2b09b" fill-rule="evenodd" stroke="none"/>
    <path d="M493.85 470.85 L494.1 472.3 490.75 472.3 490.45 470.85 493.85 470.85" fill="#d2b09b" fill-rule="evenodd" stroke="none"/>
    <path d="M496.25 473.85 L499.6 473.85 499.95 475.9 496.6 475.9 496.25 473.85" fill="#99744b" fill-rule="evenodd" stroke="none"/>
    <path d="M493.6 468.0 L493.8 469.4 490.45 469.4 490.25 468.3 490.2 468.0 493.6 468.0" fill="#d2b09b" fill-rule="evenodd" stroke="none"/>
    <path d="M495.7 469.75 L499.1 469.75 499.4 471.9 496.1 471.9 495.85 470.25 495.7 469.75" fill="#99744b" fill-rule="evenodd" stroke="none"/>
    <path d="M475.65 465.3 L475.95 466.8 472.55 466.8 472.35 465.65 472.35 465.3 475.65 465.3" fill="#99744b" fill-rule="evenodd" stroke="none"/>
    <path d="M475.35 474.4 L475.45 475.9 472.05 475.9 472.05 474.4 475.35 474.4" fill="#99744b" fill-rule="evenodd" stroke="none"/>
    <path d="M493.1 465.1 L493.35 466.6 490.0 466.6 489.7 465.1 493.1 465.1" fill="#d2b09b" fill-rule="evenodd" stroke="none"/>
    <path d="M498.8 467.8 L495.5 467.8 495.4 466.3 495.5 465.75 498.5 465.75 498.8 467.8" fill="#99744b" fill-rule="evenodd" stroke="none"/>
    <path d="M475.65 462.5 L475.95 464.0 472.55 464.0 472.35 462.8 472.35 462.5 475.65 462.5" fill="#99744b" fill-rule="evenodd" stroke="none"/>
    <path d="M493.0 462.2 L493.2 463.7 489.9 463.7 489.65 462.2 493.0 462.2" fill="#99744b" fill-rule="evenodd" stroke="none"/>
    <path d="M498.45 463.75 L495.15 463.75 494.85 462.15 494.7 461.8 498.1 461.8 498.45 463.75" fill="#99744b" fill-rule="evenodd" stroke="none"/>
    <path d="M494.15 473.7 L494.5 475.75 491.1 475.75 490.75 473.7 494.15 473.7" fill="#d2b09b" fill-rule="evenodd" stroke="none"/>
    <path d="M488.8 475.75 L480.55 475.75 480.35 474.15 480.35 473.7 488.55 473.7 488.8 475.75" fill="#d2b09b" fill-rule="evenodd" stroke="none"/>
    <path d="M475.6 460.05 L475.8 461.45 472.5 461.45 472.2 460.05 475.6 460.05" fill="#99744b" fill-rule="evenodd" stroke="none"/>
    <path d="M426.2 471.15 L426.05 472.6 422.85 472.6 422.95 471.45 422.95 471.15 426.2 471.15" fill="#d2b09b" fill-rule="evenodd" stroke="none"/>
    <path d="M429.6 468.5 L429.4 469.9 426.2 469.9 426.35 468.8 426.35 468.5 429.6 468.5" fill="#d2b09b" fill-rule="evenodd" stroke="none"/>
    <path d="M433.2 465.6 L433.05 467.0 429.8 467.0 429.95 465.9 429.95 465.6 433.2 465.6" fill="#d2b09b" fill-rule="evenodd" stroke="none"/>
    <path d="M430.1 462.65 L429.9 464.05 426.6 464.05 426.85 462.65 430.1 462.65" fill="#d2b09b" fill-rule="evenodd" stroke="none"/>
    <path d="M488.5 470.85 L488.55 472.3 485.25 472.3 485.2 470.85 488.5 470.85" fill="#d2b09b" fill-rule="evenodd" stroke="none"/>
    <path d="M484.85 468.0 L488.2 468.0 488.3 469.4 485.0 469.4 484.9 468.3 484.85 468.0" fill="#d2b09b" fill-rule="evenodd" stroke="none"/>
    <path d="M470.35 465.3 L470.45 466.8 467.05 466.8 467.0 465.3 470.35 465.3" fill="#99744b" fill-rule="evenodd" stroke="none"/>
    <path d="M470.1 474.4 L470.15 475.9 466.95 475.9 466.7 474.7 466.7 474.4 470.1 474.4" fill="#99744b" fill-rule="evenodd" stroke="none"/>
    <path d="M487.75 465.1 L487.8 466.6 484.45 466.6 484.4 465.1 487.75 465.1" fill="#d2b09b" fill-rule="evenodd" stroke="none"/>
    <path d="M470.35 462.5 L470.45 464.0 467.05 464.0 467.0 462.5 470.35 462.5" fill="#99744b" fill-rule="evenodd" stroke="none"/>
    <path d="M470.1 471.5 L470.15 473.0 466.75 473.0 466.7 471.5 470.1 471.5" fill="#99744b" fill-rule="evenodd" stroke="none"/>
    <path d="M484.25 462.2 L487.65 462.2 487.75 463.7 484.4 463.7 484.35 462.55 484.25 462.2" fill="#99744b" fill-rule="evenodd" stroke="none"/>
    <path d="M470.25 460.05 L470.3 461.45 467.0 461.45 466.95 460.05 470.25 460.05" fill="#99744b" fill-rule="evenodd" stroke="none"/>
    <path d="M421.35 471.15 L421.15 472.6 417.95 472.6 418.05 471.45 418.1 471.15 421.35 471.15" fill="#d2b09b" fill-rule="evenodd" stroke="none"/>
    <path d="M424.75 468.5 L424.5 469.9 421.3 469.9 421.4 468.8 421.5 468.5 424.75 468.5" fill="#d2b09b" fill-rule="evenodd" stroke="none"/>
    <path d="M425.05 465.6 L428.35 465.6 428.15 467.0 424.95 467.0 425.05 465.9 425.05 465.6" fill="#d2b09b" fill-rule="evenodd" stroke="none"/>
    <path d="M425.2 462.65 L425.0 464.05 421.75 464.05 421.95 462.65 425.2 462.65" fill="#d2b09b" fill-rule="evenodd" stroke="none"/>
    <path d="M483.45 470.85 L483.5 472.3 480.2 472.3 480.1 470.85 483.45 470.85" fill="#d2b09b" fill-rule="evenodd" stroke="none"/>
    <path d="M483.15 468.0 L483.2 469.4 479.9 469.4 479.8 468.0 483.15 468.0" fill="#d2b09b" fill-rule="evenodd" stroke="none"/>
    <path d="M465.3 465.3 L465.4 466.8 461.95 466.8 461.9 465.3 465.3 465.3" fill="#99744b" fill-rule="evenodd" stroke="none"/>
    <path d="M465.0 474.4 L464.65 475.9 461.4 475.9 461.55 474.7 461.55 474.4 465.0 474.4" fill="#99744b" fill-rule="evenodd" stroke="none"/>
    <path d="M482.65 465.1 L482.8 466.6 479.4 466.6 479.35 465.1 482.65 465.1" fill="#d2b09b" fill-rule="evenodd" stroke="none"/>
    <path d="M465.3 462.5 L465.4 464.0 461.95 464.0 461.9 462.5 465.3 462.5" fill="#99744b" fill-rule="evenodd" stroke="none"/>
    <path d="M482.55 462.2 L482.65 463.7 479.35 463.7 479.25 462.2 482.55 462.2" fill="#99744b" fill-rule="evenodd" stroke="none"/>
    <path d="M465.15 460.05 L465.2 461.45 461.9 461.45 461.85 460.05 465.15 460.05" fill="#99744b" fill-rule="evenodd" stroke="none"/>
    <path d="M412.8 471.25 L416.05 471.25 415.7 472.65 412.45 472.65 412.8 471.25" fill="#d2b09b" fill-rule="evenodd" stroke="none"/>
    <path d="M419.45 468.55 L419.1 469.95 415.85 469.95 416.2 468.55 419.45 468.55" fill="#d2b09b" fill-rule="evenodd" stroke="none"/>
    <path d="M423.05 465.6 L422.7 467.1 419.5 467.1 419.8 465.6 423.05 465.6" fill="#d2b09b" fill-rule="evenodd" stroke="none"/>
    <path d="M419.85 462.75 L419.6 464.1 416.3 464.1 416.65 463.0 416.7 462.75 419.85 462.75" fill="#d2b09b" fill-rule="evenodd" stroke="none"/>
    <path d="M412.8 471.25 L416.05 471.25 415.7 472.65 412.45 472.65 412.8 471.25" fill="#d2b09b" fill-rule="evenodd" stroke="none"/>
    <path d="M419.45 468.55 L419.1 469.95 415.85 469.95 416.2 468.55 419.45 468.55" fill="#d2b09b" fill-rule="evenodd" stroke="none"/>
    <path d="M423.05 465.6 L422.7 467.1 419.5 467.1 419.8 465.6 423.05 465.6" fill="#d2b09b" fill-rule="evenodd" stroke="none"/>
    <path d="M419.85 462.75 L419.6 464.1 416.3 464.1 416.65 463.0 416.7 462.75 419.85 462.75" fill="#d2b09b" fill-rule="evenodd" stroke="none"/>
    <path d="M410.75 471.25 L410.4 472.65 407.15 472.65 407.55 471.25 410.75 471.25" fill="#d2b09b" fill-rule="evenodd" stroke="none"/>
    <path d="M414.1 468.55 L413.8 469.95 410.55 469.95 410.9 468.55 414.1 468.55" fill="#d2b09b" fill-rule="evenodd" stroke="none"/>
    <path d="M417.4 467.1 L414.2 467.1 414.5 465.6 417.75 465.6 417.4 467.1" fill="#d2b09b" fill-rule="evenodd" stroke="none"/>
    <path d="M414.55 462.75 L414.3 464.1 411.05 464.1 411.3 463.0 411.3 462.75 414.55 462.75" fill="#d2b09b" fill-rule="evenodd" stroke="none"/>
    <path d="M435.1 460.05 L435.1 461.45 431.85 461.45 431.85 460.3 431.9 460.05 435.1 460.05" fill="#99744b" fill-rule="evenodd" stroke="none"/>
    <path d="M457.65 461.15 L454.5 461.15 454.55 459.75 457.8 459.75 457.65 461.15" fill="#d2b09b" fill-rule="evenodd" stroke="none"/>
    <path d="M411.95 459.85 L411.6 461.2 408.35 461.2 408.7 459.85 411.95 459.85" fill="#d2b09b" fill-rule="evenodd" stroke="none"/>
    <path d="M405.0 471.1 L404.7 472.5 401.45 472.5 401.8 471.1 405.0 471.1" fill="#d2b09b" fill-rule="evenodd" stroke="none"/>
    <path d="M408.35 468.4 L408.1 469.85 404.85 469.85 405.2 468.4 408.35 468.4" fill="#d2b09b" fill-rule="evenodd" stroke="none"/>
    <path d="M412.05 465.55 L411.65 466.95 408.45 466.95 408.8 465.55 412.05 465.55" fill="#d2b09b" fill-rule="evenodd" stroke="none"/>
    <path d="M408.85 462.55 L408.55 464.05 405.35 464.05 405.6 462.55 408.85 462.55" fill="#d2b09b" fill-rule="evenodd" stroke="none"/>
    <path d="M429.4 459.95 L429.3 461.4 426.05 461.4 426.15 459.95 429.4 459.95" fill="#99744b" fill-rule="evenodd" stroke="none"/>
    <path d="M452.1 459.65 L451.95 461.1 448.7 461.1 448.85 459.95 448.85 459.65 452.1 459.65" fill="#d2b09b" fill-rule="evenodd" stroke="none"/>
    <path d="M406.25 459.65 L405.9 461.1 402.65 461.1 403.0 459.65 406.25 459.65" fill="#d2b09b" fill-rule="evenodd" stroke="none"/>
    <path d="M399.7 471.1 L399.35 472.5 396.1 472.5 396.45 471.1 399.7 471.1" fill="#d2b09b" fill-rule="evenodd" stroke="none"/>
    <path d="M403.0 468.4 L402.7 469.85 399.45 469.85 399.8 468.4 403.0 468.4" fill="#d2b09b" fill-rule="evenodd" stroke="none"/>
    <path d="M406.65 465.55 L406.3 466.95 403.1 466.95 403.45 465.55 406.65 465.55" fill="#d2b09b" fill-rule="evenodd" stroke="none"/>
    <path d="M403.5 462.55 L403.15 464.05 399.95 464.05 400.2 462.95 400.35 462.55 403.5 462.55" fill="#d2b09b" fill-rule="evenodd" stroke="none"/>
    <path d="M424.05 459.95 L423.95 461.4 420.7 461.4 420.75 459.95 424.05 459.95" fill="#99744b" fill-rule="evenodd" stroke="none"/>
    <path d="M443.5 459.65 L446.75 459.65 446.6 461.1 443.35 461.1 443.5 459.95 443.5 459.65" fill="#d2b09b" fill-rule="evenodd" stroke="none"/>
    <path d="M400.9 459.65 L400.55 461.1 397.3 461.1 397.65 459.65 400.9 459.65" fill="#d2b09b" fill-rule="evenodd" stroke="none"/>
    <path d="M390.8 472.6 L391.15 471.15 394.4 471.15 394.05 472.6 390.8 472.6" fill="#d2b09b" fill-rule="evenodd" stroke="none"/>
    <path d="M397.8 468.5 L397.45 469.9 394.2 469.9 394.55 468.5 397.8 468.5" fill="#d2b09b" fill-rule="evenodd" stroke="none"/>
    <path d="M401.35 465.6 L401.0 467.0 397.85 467.0 398.2 465.6 401.35 465.6" fill="#d2b09b" fill-rule="evenodd" stroke="none"/>
    <path d="M398.25 462.65 L397.9 464.05 394.7 464.05 395.05 462.65 398.25 462.65" fill="#d2b09b" fill-rule="evenodd" stroke="none"/>
    <path d="M380.2 468.8 L386.6 468.8 386.55 470.2 379.8 470.2 380.2 469.05 380.2 468.8" fill="#99744b" fill-rule="evenodd" stroke="none"/>
    <path d="M388.75 471.15 L388.6 472.4 379.0 472.4 379.4 471.45 379.45 471.15 388.75 471.15" fill="#99744b" fill-rule="evenodd" stroke="none"/>
    <path d="M381.05 466.4 L386.85 466.4 386.8 467.5 380.5 467.5 380.75 466.6 381.05 466.4" fill="#99744b" fill-rule="evenodd" stroke="none"/>
    <path d="M418.8 459.95 L418.75 461.4 415.5 461.4 415.55 459.95 418.8 459.95" fill="#99744b" fill-rule="evenodd" stroke="none"/>
    <path d="M441.5 459.65 L441.3 461.1 438.15 461.1 438.2 460.05 438.25 459.65 441.5 459.65" fill="#d2b09b" fill-rule="evenodd" stroke="none"/>
    <path d="M395.25 461.15 L392.05 461.15 392.25 460.05 392.35 459.75 395.6 459.75 395.25 461.15" fill="#d2b09b" fill-rule="evenodd" stroke="none"/>
    <path d="M392.8 468.3 L392.4 469.7 389.15 469.7 389.5 468.3 392.8 468.3" fill="#d2b09b" fill-rule="evenodd" stroke="none"/>
    <path d="M392.25 465.55 L391.95 466.95 388.7 466.95 389.05 465.55 392.25 465.55" fill="#d2b09b" fill-rule="evenodd" stroke="none"/>
    <path d="M396.95 466.95 L393.7 466.95 394.05 465.55 397.25 465.55 396.95 466.95" fill="#d2b09b" fill-rule="evenodd" stroke="none"/>
    <path d="M393.8 463.05 L393.5 464.5 390.3 464.5 390.5 463.35 390.65 463.05 393.8 463.05" fill="#d2b09b" fill-rule="evenodd" stroke="none"/>
    <path d="M389.75 462.85 L389.4 464.3 386.15 464.3 386.5 462.85 389.75 462.85" fill="#d2b09b" fill-rule="evenodd" stroke="none"/>
    <path d="M382.2 463.05 L385.45 463.05 385.05 464.5 381.85 464.5 382.2 463.35 382.2 463.05" fill="#d2b09b" fill-rule="evenodd" stroke="none"/>
    <path d="M442.5 473.45 L442.1 472.65 442.1 471.15 442.5 471.75 442.5 473.45" fill="#efede2" fill-rule="evenodd" stroke="none"/>
    <path d="M445.45 469.95 L445.45 468.5 445.9 469.05 445.9 470.75 445.45 469.95" fill="#efede2" fill-rule="evenodd" stroke="none"/>
    <path d="M449.1 467.1 L449.1 465.6 449.55 466.2 449.55 467.8 449.1 467.1" fill="#efede2" fill-rule="evenodd" stroke="none"/>
    <path d="M445.95 464.1 L445.95 462.65 446.4 463.2 446.4 464.9 445.95 464.1" fill="#efede2" fill-rule="evenodd" stroke="none"/>
    <path d="M456.95 464.0 L456.95 462.5 458.05 463.05 458.05 464.7 456.95 464.0" fill="#efede2" fill-rule="evenodd" stroke="none"/>
    <path d="M437.55 473.45 L437.15 472.65 437.15 471.15 437.55 471.75 437.55 473.45" fill="#efede2" fill-rule="evenodd" stroke="none"/>
    <path d="M440.55 469.95 L440.55 468.5 440.95 469.05 440.95 470.75 440.55 469.95" fill="#efede2" fill-rule="evenodd" stroke="none"/>
    <path d="M444.2 467.1 L444.2 465.6 444.65 466.2 444.65 467.8 444.2 467.1" fill="#efede2" fill-rule="evenodd" stroke="none"/>
    <path d="M441.0 464.1 L441.0 462.65 441.45 463.2 441.45 464.9 441.0 464.1" fill="#efede2" fill-rule="evenodd" stroke="none"/>
    <path d="M457.05 467.15 L457.05 465.65 457.65 466.25 457.65 467.95 457.05 467.15" fill="#efede2" fill-rule="evenodd" stroke="none"/>
    <path d="M386.6 461.2 L387.0 459.45 387.35 460.2 386.85 462.1 386.6 461.2" fill="#ca9b7f" fill-rule="evenodd" stroke="none"/>
    <path d="M431.7 473.45 L431.3 472.65 431.3 471.15 431.7 471.75 431.7 473.45" fill="#efede2" fill-rule="evenodd" stroke="none"/>
    <path d="M434.7 469.95 L434.7 468.5 435.1 469.05 435.1 470.75 434.7 469.95" fill="#efede2" fill-rule="evenodd" stroke="none"/>
    <path d="M438.25 467.1 L438.25 465.6 438.7 466.2 438.7 467.8 438.25 467.1" fill="#efede2" fill-rule="evenodd" stroke="none"/>
    <path d="M435.6 463.2 L435.6 464.9 435.15 464.1 435.15 462.65 435.6 463.2" fill="#efede2" fill-rule="evenodd" stroke="none"/>
    <path d="M426.3 473.45 L426.0 472.65 426.15 471.15 426.5 471.75 426.3 473.45" fill="#efede2" fill-rule="evenodd" stroke="none"/>
    <path d="M429.3 469.95 L429.5 468.5 429.9 469.05 429.65 470.75 429.3 469.95" fill="#efede2" fill-rule="evenodd" stroke="none"/>
    <path d="M433.0 467.1 L433.15 465.6 433.5 466.2 433.35 467.8 433.0 467.1" fill="#efede2" fill-rule="evenodd" stroke="none"/>
    <path d="M429.8 464.1 L430.05 462.65 430.35 463.2 430.15 464.9 429.8 464.1" fill="#efede2" fill-rule="evenodd" stroke="none"/>
    <path d="M489.0 473.15 L488.5 472.4 488.45 470.85 488.9 471.4 489.0 473.15" fill="#efede2" fill-rule="evenodd" stroke="none"/>
    <path d="M488.2 469.5 L488.15 468.0 488.65 468.55 488.7 470.25 488.2 469.5" fill="#efede2" fill-rule="evenodd" stroke="none"/>
    <path d="M470.35 466.85 L470.3 465.3 470.7 465.9 470.85 467.65 470.35 466.85" fill="#ca9b7f" fill-rule="evenodd" stroke="none"/>
    <path d="M470.1 475.9 L470.05 474.4 470.45 475.0 470.6 476.7 470.1 475.9" fill="#ca9b7f" fill-rule="evenodd" stroke="none"/>
    <path d="M487.8 466.65 L487.65 465.1 488.15 465.65 488.3 467.45 487.8 466.65" fill="#efede2" fill-rule="evenodd" stroke="none"/>
    <path d="M470.35 464.0 L470.3 462.5 470.7 463.05 470.85 464.75 470.35 464.0" fill="#ca9b7f" fill-rule="evenodd" stroke="none"/>
    <path d="M470.1 473.05 L470.05 471.5 470.45 472.1 470.6 473.85 470.1 473.05" fill="#ca9b7f" fill-rule="evenodd" stroke="none"/>
    <path d="M487.65 463.75 L487.6 462.2 488.1 462.85 488.15 464.55 487.65 463.75" fill="#ca9b7f" fill-rule="evenodd" stroke="none"/>
    <path d="M470.25 461.5 L470.15 460.05 470.65 460.6 470.7 462.3 470.25 461.5" fill="#ca9b7f" fill-rule="evenodd" stroke="none"/>
    <path d="M421.4 473.45 L421.05 472.65 421.3 471.15 421.6 471.75 421.4 473.45" fill="#efede2" fill-rule="evenodd" stroke="none"/>
    <path d="M424.45 469.95 L424.65 468.5 425.0 469.05 424.8 470.75 424.45 469.95" fill="#efede2" fill-rule="evenodd" stroke="none"/>
    <path d="M428.1 467.1 L428.25 465.6 428.6 466.2 428.4 467.8 428.1 467.1" fill="#efede2" fill-rule="evenodd" stroke="none"/>
    <path d="M424.95 464.1 L425.15 462.65 425.5 463.2 425.3 464.9 424.95 464.1" fill="#efede2" fill-rule="evenodd" stroke="none"/>
    <path d="M483.9 473.15 L483.5 472.4 483.35 470.85 483.85 471.4 483.9 473.15" fill="#efede2" fill-rule="evenodd" stroke="none"/>
    <path d="M483.15 469.5 L483.05 468.0 483.55 468.55 483.65 470.25 483.15 469.5" fill="#efede2" fill-rule="evenodd" stroke="none"/>
    <path d="M465.3 466.85 L465.2 465.3 465.7 465.9 465.8 467.65 465.3 466.85" fill="#ca9b7f" fill-rule="evenodd" stroke="none"/>
    <path d="M464.8 475.9 L464.95 474.4 465.2 475.0 465.05 476.6 464.8 475.9" fill="#ca9b7f" fill-rule="evenodd" stroke="none"/>
    <path d="M482.7 466.65 L482.65 465.1 483.05 465.65 483.2 467.45 482.7 466.65" fill="#efede2" fill-rule="evenodd" stroke="none"/>
    <path d="M465.3 464.0 L465.2 462.5 465.7 463.05 465.8 464.75 465.3 464.0" fill="#ca9b7f" fill-rule="evenodd" stroke="none"/>
    <path d="M482.55 463.75 L482.5 462.2 483.0 462.85 483.05 464.55 482.55 463.75" fill="#ca9b7f" fill-rule="evenodd" stroke="none"/>
    <path d="M465.2 461.5 L465.05 460.05 465.6 460.6 465.65 462.3 465.2 461.5" fill="#ca9b7f" fill-rule="evenodd" stroke="none"/>
    <path d="M415.65 472.75 L416.0 471.25 416.25 471.8 415.9 473.45 415.65 472.75" fill="#efede2" fill-rule="evenodd" stroke="none"/>
    <path d="M419.0 470.05 L419.4 468.55 419.65 469.15 419.3 470.75 419.0 470.05" fill="#efede2" fill-rule="evenodd" stroke="none"/>
    <path d="M422.6 467.1 L422.95 465.6 423.25 466.2 422.9 467.85 422.6 467.1" fill="#efede2" fill-rule="evenodd" stroke="none"/>
    <path d="M419.5 464.2 L419.85 462.75 420.15 463.3 419.8 464.9 419.5 464.2" fill="#efede2" fill-rule="evenodd" stroke="none"/>
    <path d="M415.65 472.75 L416.0 471.25 416.25 471.8 415.9 473.45 415.65 472.75" fill="#efede2" fill-rule="evenodd" stroke="none"/>
    <path d="M419.0 470.05 L419.4 468.55 419.65 469.15 419.3 470.75 419.0 470.05" fill="#efede2" fill-rule="evenodd" stroke="none"/>
    <path d="M422.6 467.1 L422.95 465.6 423.25 466.2 422.9 467.85 422.6 467.1" fill="#efede2" fill-rule="evenodd" stroke="none"/>
    <path d="M419.5 464.2 L419.85 462.75 420.15 463.3 419.8 464.9 419.5 464.2" fill="#efede2" fill-rule="evenodd" stroke="none"/>
    <path d="M494.3 473.25 L493.8 472.45 493.65 470.9 494.15 471.45 494.3 473.25" fill="#efede2" fill-rule="evenodd" stroke="none"/>
    <path d="M499.65 476.15 L499.4 473.95 499.95 474.7 500.2 477.15 499.65 476.15" fill="#ca9b7f" fill-rule="evenodd" stroke="none"/>
    <path d="M493.5 469.55 L493.35 468.0 493.85 468.65 494.0 470.35 493.5 469.55" fill="#efede2" fill-rule="evenodd" stroke="none"/>
    <path d="M498.95 469.85 L499.4 470.7 499.8 473.05 499.15 472.05 498.95 469.85" fill="#ca9b7f" fill-rule="evenodd" stroke="none"/>
    <path d="M475.65 466.95 L475.5 465.4 476.0 465.95 476.15 467.75 475.65 466.95" fill="#ca9b7f" fill-rule="evenodd" stroke="none"/>
    <path d="M475.25 475.9 L475.25 474.5 475.65 475.05 475.65 476.55 475.25 475.9" fill="#ca9b7f" fill-rule="evenodd" stroke="none"/>
    <path d="M493.0 466.75 L492.95 465.2 493.45 465.75 493.5 467.45 493.0 466.75" fill="#efede2" fill-rule="evenodd" stroke="none"/>
    <path d="M498.95 468.0 L498.75 465.85 499.2 466.6 499.5 469.05 498.95 468.0" fill="#ca9b7f" fill-rule="evenodd" stroke="none"/>
    <path d="M475.65 464.05 L475.5 462.5 476.0 463.15 476.15 464.85 475.65 464.05" fill="#ca9b7f" fill-rule="evenodd" stroke="none"/>
    <path d="M492.95 463.85 L492.8 462.3 493.3 462.85 493.45 464.6 492.95 463.85" fill="#ca9b7f" fill-rule="evenodd" stroke="none"/>
    <path d="M488.7 475.85 L488.55 473.8 489.15 474.35 489.15 476.6 488.7 475.85" fill="#efede2" fill-rule="evenodd" stroke="none"/>
    <path d="M498.15 463.9 L497.95 461.75 498.45 462.55 498.75 465.05 498.15 463.9" fill="#ca9b7f" fill-rule="evenodd" stroke="none"/>
    <path d="M494.2 475.95 L494.0 473.8 494.5 474.55 494.75 477.05 494.2 475.95" fill="#efede2" fill-rule="evenodd" stroke="none"/>
    <path d="M475.5 461.6 L475.35 460.05 475.9 460.65 476.0 462.35 475.5 461.6" fill="#ca9b7f" fill-rule="evenodd" stroke="none"/>
    <path d="M410.35 472.75 L410.7 471.25 411.0 471.8 410.65 473.45 410.35 472.75" fill="#efede2" fill-rule="evenodd" stroke="none"/>
    <path d="M413.75 470.05 L414.1 468.55 414.35 469.15 414.0 470.75 413.75 470.05" fill="#efede2" fill-rule="evenodd" stroke="none"/>
    <path d="M417.3 467.1 L417.65 465.6 417.95 466.2 417.6 467.85 417.3 467.1" fill="#efede2" fill-rule="evenodd" stroke="none"/>
    <path d="M414.2 464.2 L414.5 462.75 414.85 463.3 414.5 464.9 414.2 464.2" fill="#efede2" fill-rule="evenodd" stroke="none"/>
    <path d="M435.05 461.5 L435.1 460.05 435.45 460.6 435.35 462.2 435.05 461.5" fill="#ca9b7f" fill-rule="evenodd" stroke="none"/>
    <path d="M457.6 461.2 L457.75 459.75 458.2 460.3 458.05 461.95 457.6 461.2" fill="#efede2" fill-rule="evenodd" stroke="none"/>
    <path d="M411.55 461.2 L411.9 459.85 412.2 460.3 411.8 462.0 411.55 461.2" fill="#efede2" fill-rule="evenodd" stroke="none"/>
    <path d="M404.9 473.4 L404.65 472.6 405.0 471.1 405.25 471.7 404.9 473.4" fill="#efede2" fill-rule="evenodd" stroke="none"/>
    <path d="M408.0 469.9 L408.3 468.4 408.65 469.0 408.3 470.7 408.0 469.9" fill="#efede2" fill-rule="evenodd" stroke="none"/>
    <path d="M411.6 467.0 L411.95 465.55 412.25 466.1 411.9 467.75 411.6 467.0" fill="#efede2" fill-rule="evenodd" stroke="none"/>
    <path d="M408.5 464.05 L408.8 462.55 409.15 463.15 408.7 464.85 408.5 464.05" fill="#efede2" fill-rule="evenodd" stroke="none"/>
    <path d="M429.25 461.4 L429.3 459.95 429.75 460.45 429.65 462.15 429.25 461.4" fill="#ca9b7f" fill-rule="evenodd" stroke="none"/>
    <path d="M451.9 461.1 L452.05 459.65 452.4 460.2 452.25 461.85 451.9 461.1" fill="#efede2" fill-rule="evenodd" stroke="none"/>
    <path d="M405.8 461.15 L406.2 459.65 406.45 460.25 406.1 461.85 405.8 461.15" fill="#efede2" fill-rule="evenodd" stroke="none"/>
    <path d="M399.45 473.4 L399.25 472.6 399.6 471.1 399.9 471.7 399.45 473.4" fill="#efede2" fill-rule="evenodd" stroke="none"/>
    <path d="M402.55 469.9 L403.0 468.4 403.3 469.0 402.85 470.7 402.55 469.9" fill="#efede2" fill-rule="evenodd" stroke="none"/>
    <path d="M406.25 467.0 L406.6 465.55 406.9 466.1 406.45 467.75 406.25 467.0" fill="#efede2" fill-rule="evenodd" stroke="none"/>
    <path d="M403.1 464.05 L403.45 462.55 403.8 463.15 403.35 464.85 403.1 464.05" fill="#efede2" fill-rule="evenodd" stroke="none"/>
    <path d="M423.9 461.4 L423.95 459.95 424.4 460.45 424.25 462.15 423.9 461.4" fill="#ca9b7f" fill-rule="evenodd" stroke="none"/>
    <path d="M446.55 461.1 L446.65 459.65 447.0 460.2 446.9 461.85 446.55 461.1" fill="#efede2" fill-rule="evenodd" stroke="none"/>
    <path d="M400.45 461.15 L400.8 459.65 401.1 460.25 400.7 461.85 400.45 461.15" fill="#efede2" fill-rule="evenodd" stroke="none"/>
    <path d="M394.7 471.75 L394.25 473.45 393.95 472.65 394.35 471.15 394.7 471.75" fill="#efede2" fill-rule="evenodd" stroke="none"/>
    <path d="M397.35 469.95 L397.7 468.5 398.0 469.05 397.65 470.75 397.35 469.95" fill="#efede2" fill-rule="evenodd" stroke="none"/>
    <path d="M400.95 467.1 L401.35 465.6 401.65 466.2 401.25 467.8 400.95 467.1" fill="#efede2" fill-rule="evenodd" stroke="none"/>
    <path d="M397.85 464.1 L398.2 462.65 398.5 463.2 398.05 464.9 397.85 464.1" fill="#efede2" fill-rule="evenodd" stroke="none"/>
    <path d="M386.4 470.25 L386.5 468.8 387.35 469.2 386.95 470.95 386.4 470.25" fill="#ca9b7f" fill-rule="evenodd" stroke="none"/>
    <path d="M389.3 473.0 L388.4 472.4 388.85 471.15 389.75 471.7 389.3 473.0" fill="#ca9b7f" fill-rule="evenodd" stroke="none"/>
    <path d="M386.6 467.6 L386.7 466.4 387.5 466.8 387.25 468.15 386.6 467.6" fill="#ca9b7f" fill-rule="evenodd" stroke="none"/>
    <path d="M418.65 461.45 L418.75 459.95 419.15 460.55 419.0 462.2 418.65 461.45" fill="#ca9b7f" fill-rule="evenodd" stroke="none"/>
    <path d="M441.25 461.15 L441.45 459.65 441.8 460.25 441.6 461.95 441.25 461.15" fill="#efede2" fill-rule="evenodd" stroke="none"/>
    <path d="M395.15 461.2 L395.5 459.75 395.9 460.3 395.45 461.95 395.15 461.2" fill="#efede2" fill-rule="evenodd" stroke="none"/>
    <path d="M392.35 469.75 L392.7 468.3 393.0 468.85 392.6 470.5 392.35 469.75" fill="#efede2" fill-rule="evenodd" stroke="none"/>
    <path d="M391.8 467.0 L392.2 465.55 392.5 466.1 392.05 467.8 391.8 467.0" fill="#efede2" fill-rule="evenodd" stroke="none"/>
    <path d="M396.8 467.0 L397.25 465.55 397.5 466.1 397.05 467.8 396.8 467.0" fill="#efede2" fill-rule="evenodd" stroke="none"/>
    <path d="M393.4 464.5 L393.75 463.05 394.1 463.55 393.7 465.25 393.4 464.5" fill="#efede2" fill-rule="evenodd" stroke="none"/>
    <path d="M389.3 464.35 L389.65 462.85 389.95 463.4 389.5 465.1 389.3 464.35" fill="#efede2" fill-rule="evenodd" stroke="none"/>
    <path d="M385.0 464.5 L385.4 463.05 385.65 463.55 385.3 465.25 385.0 464.5" fill="#efede2" fill-rule="evenodd" stroke="none"/>
    <path d="M398.05 475.55 L429.5 475.4 430.05 476.9 397.7 476.9 398.05 475.55" fill="#99744b" fill-rule="evenodd" stroke="none"/>
    <path d="M398.8 474.2 L429.65 474.05 429.5 475.4 397.9 475.55 398.8 474.2" fill="#d2b09b" fill-rule="evenodd" stroke="none"/>
    <path d="M429.5 475.7 L429.5 474.35 430.25 475.35 430.1 477.05 429.5 475.7" fill="#fee2c6" fill-rule="evenodd" stroke="none"/>
    <path d="M498.45 461.6 L478.85 461.6 478.85 460.05 498.15 459.9 498.45 461.6" fill="#ca9b7f" fill-rule="evenodd" stroke="none"/>
    <path d="M479.9 460.75 L479.95 460.65 480.1 460.6 480.25 460.55 480.8 460.55 480.95 460.6 481.1 460.65 481.15 460.75 481.1 460.8 480.8 460.95 480.25 460.95 479.95 460.8 479.9 460.75" fill="#687c33" fill-rule="evenodd" stroke="none"/>
    <path d="M487.8 460.85 L487.65 460.75 487.6 460.6 487.65 460.45 487.8 460.3 488.1 460.25 488.65 460.25 488.9 460.3 489.1 460.45 489.15 460.6 489.1 460.75 488.9 460.85 488.65 460.95 488.1 460.95 487.8 460.85" fill="#fded4d" fill-rule="evenodd" stroke="none"/>
    <path d="M495.35 460.85 L495.2 460.75 495.15 460.6 495.2 460.45 495.35 460.3 495.65 460.25 496.25 460.25 496.55 460.3 496.7 460.45 496.75 460.6 496.7 460.75 496.55 460.85 496.25 460.95 495.65 460.95 495.35 460.85" fill="#99334a" fill-rule="evenodd" stroke="none"/>
  </g>
  <defs>
    <linearGradient gradientTransform="matrix(0.0043, -0.0131, -0.0131, -0.0043, 438.9, 477.0)" gradientUnits="userSpaceOnUse" id="gradient0" spreadMethod="pad" x1="-819.2" x2="819.2">
      <stop offset="0.0" stop-color="#8a6f53"/>
      <stop offset="1.0" stop-color="#dcc5b1"/>
    </linearGradient>
  </defs>
</svg>
