<?xml version="1.0" encoding="UTF-8" standalone="no"?>
<svg xmlns:xlink="http://www.w3.org/1999/xlink" height="6.75px" width="6.75px" xmlns="http://www.w3.org/2000/svg">
  <g transform="matrix(1, 0, 0, 1, 6.2, 11.05)">
    <path d="M-3.35 -10.9 Q-0.1 -11.5 0.45 -9.3 L0.55 -7.65 Q0.55 -6.55 0.2 -6.1 -0.7 -4.55 -1.95 -4.35 -3.05 -4.15 -4.55 -5.15 L-5.5 -6.4 -6.15 -8.0 Q-6.65 -10.4 -3.35 -10.9" fill="#ffdd5a" fill-opacity="0.9764706" fill-rule="evenodd" stroke="none"/>
    <path d="M-3.35 -10.9 Q-0.1 -11.5 0.45 -9.3 L0.55 -7.65 Q0.55 -6.55 0.2 -6.1 -0.7 -4.55 -1.95 -4.35 -3.05 -4.15 -4.55 -5.15 L-5.5 -6.4 -6.15 -8.0 Q-6.65 -10.4 -3.35 -10.9" fill="#333333" fill-rule="evenodd" stroke="none"/>
  </g>
</svg>
