<?xml version="1.0" encoding="UTF-8" standalone="no"?>
<svg xmlns:xlink="http://www.w3.org/1999/xlink" height="14.75px" width="12.4px" xmlns="http://www.w3.org/2000/svg">
  <g transform="matrix(1, 0, 0, 1, 7.8, 15.0)">
    <path d="M-4.85 -9.65 L-4.55 -8.1 Q-5.25 -7.5 -6.4 -7.75 L-6.7 -9.35 Q-5.5 -9.15 -4.85 -9.65" fill="#333333" fill-opacity="0.9764706" fill-rule="evenodd" stroke="none"/>
    <path d="M-5.65 -7.95 L-5.75 -7.9 -6.0 -9.1 -5.9 -9.1 -5.8 -8.65 -5.15 -8.75 -5.0 -7.95 -5.15 -7.95 -5.2 -8.45 -5.75 -8.4 -5.65 -7.95" fill="#e6e6e6" fill-rule="evenodd" stroke="none"/>
    <path d="M-5.2 -11.35 L-4.9 -9.8 Q-5.7 -9.15 -6.75 -9.5 L-7.1 -11.05 Q-5.85 -10.85 -5.2 -11.35" fill="#333333" fill-opacity="0.9764706" fill-rule="evenodd" stroke="none"/>
    <path d="M-5.65 -10.25 L-5.75 -10.5 -5.95 -10.6 -6.15 -10.5 -6.15 -10.15 -6.05 -9.9 -5.8 -9.8 -5.6 -9.9 -5.65 -10.25 M-5.75 -10.7 L-5.55 -10.2 -5.55 -9.7 Q-5.55 -9.55 -5.75 -9.55 -5.9 -9.5 -6.05 -9.7 L-6.2 -10.15 -6.25 -10.65 Q-6.2 -10.85 -6.0 -10.85 L-5.75 -10.7" fill="#ffffff" fill-rule="evenodd" stroke="none"/>
    <path d="M-5.6 -13.25 L-5.3 -11.65 Q-6.0 -11.05 -7.15 -11.3 L-7.45 -12.9 Q-6.2 -12.7 -5.6 -13.25" fill="#333333" fill-opacity="0.9764706" fill-rule="evenodd" stroke="none"/>
    <path d="M-6.2 -11.7 Q-6.05 -11.65 -6.0 -11.8 L-6.0 -12.15 -6.1 -12.4 -6.35 -12.45 -6.55 -12.35 -6.5 -12.05 -6.4 -11.7 -6.2 -11.7 M-5.95 -12.1 L-5.9 -11.6 -6.15 -11.4 -6.45 -11.6 -6.65 -12.05 -6.65 -12.5 -6.4 -12.75 -6.15 -12.6 -5.95 -12.1" fill="#ffffff" fill-rule="evenodd" stroke="none"/>
    <path d="M-5.95 -15.0 L-5.65 -13.4 Q-6.4 -12.85 -7.5 -13.1 L-7.8 -14.65 Q-6.6 -14.55 -5.95 -15.0" fill="#333333" fill-opacity="0.9764706" fill-rule="evenodd" stroke="none"/>
    <path d="M-6.8 -13.55 L-6.55 -13.45 -6.35 -13.55 -6.4 -13.9 -6.5 -14.2 -6.75 -14.3 -6.9 -14.15 -6.9 -13.85 -6.8 -13.55 M-6.5 -13.2 Q-6.65 -13.2 -6.8 -13.35 L-7.0 -13.85 -7.0 -14.3 -6.75 -14.5 -6.5 -14.35 -6.3 -13.9 -6.3 -13.45 Q-6.3 -13.2 -6.5 -13.2" fill="#ffffff" fill-rule="evenodd" stroke="none"/>
    <path d="M3.3 -6.35 L4.6 -0.25 Q3.65 -0.15 2.85 -0.9 2.0 -1.65 1.75 -2.9 1.5 -4.15 2.0 -5.1 2.45 -6.05 3.3 -6.35" fill="#333333" fill-opacity="0.9764706" fill-rule="evenodd" stroke="none"/>
  </g>
</svg>
