<?xml version="1.0" encoding="UTF-8" standalone="no"?>
<svg xmlns:xlink="http://www.w3.org/1999/xlink" height="67.0px" width="24.0px" xmlns="http://www.w3.org/2000/svg">
  <g transform="matrix(1, 0, 0, 1, -747.25, -214.6)">
    <path d="M750.85 240.8 L750.85 219.0 750.85 218.4 757.15 218.4 750.75 217.85 Q747.25 217.3 747.25 216.5 747.25 215.7 750.75 215.15 L759.25 214.6 767.75 215.15 Q771.25 215.7 771.25 216.5 771.25 217.3 767.75 217.85 L761.2 218.4 767.65 218.4 767.65 219.0 767.65 240.8 750.85 240.8" fill="#cccccc" fill-rule="evenodd" stroke="none"/>
    <path d="M767.65 240.8 L767.65 262.6 Q767.65 281.6 762.2 281.6 L756.3 281.6 Q750.85 281.6 750.85 262.6 L750.85 240.8 767.65 240.8" fill="#ffffff" fill-opacity="0.63529414" fill-rule="evenodd" stroke="none"/>
  </g>
</svg>
