<?xml version="1.0" encoding="UTF-8" standalone="no"?>
<svg xmlns:xlink="http://www.w3.org/1999/xlink" height="600.0px" width="799.95px" xmlns="http://www.w3.org/2000/svg">
  <g transform="matrix(1, 0, 0, 1, 400.95, 296.95)">
    <path d="M-400.95 -296.95 L399.0 -296.95 399.0 303.05 -400.95 303.05 -400.95 -296.95" fill="#cecece" fill-opacity="0.6" fill-rule="evenodd" stroke="none"/>
    <path d="M136.4 -92.65 Q144.6 -84.45 144.6 -72.85 L144.6 90.2 Q144.6 101.8 136.4 110.0 128.2 118.2 116.6 118.2 L-120.5 118.2 Q-132.1 118.2 -140.3 110.0 -148.5 101.8 -148.5 90.2 L-148.5 -72.85 Q-148.5 -84.45 -140.3 -92.65 -132.1 -100.85 -120.5 -100.85 L116.6 -100.85 Q128.2 -100.85 136.4 -92.65" fill="#ffffff" fill-rule="evenodd" stroke="none"/>
  </g>
</svg>
