<?xml version="1.0" encoding="UTF-8" standalone="no"?>
<svg xmlns:xlink="http://www.w3.org/1999/xlink" height="12.3px" width="90.95px" xmlns="http://www.w3.org/2000/svg">
  <g transform="matrix(1, 0, 0, 1, 45.5, 6.15)">
    <path d="M40.7 3.5 L44.95 0.2 40.2 -3.4 M21.7 0.35 Q17.15 -11.3 12.8 0.45 7.8 10.8 3.4 0.55 L3.35 0.4 Q-0.85 -10.4 -4.8 -0.95 -10.5 9.95 -14.6 0.5 M32.4 0.35 Q25.9 10.15 21.85 0.7 M32.85 0.3 L42.55 0.2 M-14.7 0.15 L-15.3 -1.2 Q-19.55 -10.8 -23.65 0.25 -28.65 10.65 -33.05 0.35 L-33.1 0.2 Q-37.65 -11.45 -41.9 0.5 L-45.0 0.5" fill="none" stroke="url(#gradient0)" stroke-linecap="round" stroke-linejoin="round" stroke-width="1.0"/>
  </g>
  <defs>
    <linearGradient gradientTransform="matrix(0.0555, 0.0, 0.0, 0.0075, -0.05, 0.0)" gradientUnits="userSpaceOnUse" id="gradient0" spreadMethod="pad" x1="-819.2" x2="819.2">
      <stop offset="0.0" stop-color="#0066fd"/>
      <stop offset="0.3764705882352941" stop-color="#ffffff"/>
      <stop offset="0.47843137254901963" stop-color="#ffffff"/>
      <stop offset="0.5019607843137255" stop-color="#996600"/>
      <stop offset="0.6666666666666666" stop-color="#ffcc00"/>
      <stop offset="1.0" stop-color="#ffffff"/>
    </linearGradient>
  </defs>
</svg>
