<?xml version="1.0" encoding="UTF-8" standalone="no"?>
<svg xmlns:xlink="http://www.w3.org/1999/xlink" height="18.55px" width="40.8px" xmlns="http://www.w3.org/2000/svg">
  <g transform="matrix(1, 0, 0, 1, 20.4, 9.25)">
    <path d="M19.1 -8.75 Q19.9 -8.75 19.9 -7.95 L19.9 8.0 Q19.9 8.8 19.1 8.8 L-19.1 8.8 Q-19.9 8.8 -19.9 8.0 L-19.9 -7.95 Q-19.9 -8.75 -19.1 -8.75 L19.1 -8.75" fill="#ffffff" fill-rule="evenodd" stroke="none"/>
    <path d="M19.1 -8.75 L-19.1 -8.75 Q-19.9 -8.75 -19.9 -7.95 L-19.9 8.0 Q-19.9 8.8 -19.1 8.8 L19.1 8.8 Q19.9 8.8 19.9 8.0 L19.9 -7.95 Q19.9 -8.75 19.1 -8.75 Z" fill="none" stroke="#bcae91" stroke-linecap="round" stroke-linejoin="round" stroke-width="1.0"/>
  </g>
</svg>
