<?xml version="1.0" encoding="UTF-8" standalone="no"?>
<svg xmlns:xlink="http://www.w3.org/1999/xlink" height="528.95px" width="798.2px" xmlns="http://www.w3.org/2000/svg">
  <g transform="matrix(1, 0, 0, 1, 399.1, 264.45)">
    <path d="M322.85 -55.45 L-287.1 -55.45 Q-296.1 -55.45 -296.1 -46.45 L-296.1 43.55 Q-296.1 52.55 -287.1 52.55 L322.85 52.55 Q331.85 52.55 331.85 43.55 L331.85 -46.45 Q331.85 -55.45 322.85 -55.45 M399.1 264.5 L-399.1 264.5 -399.1 -264.45 399.1 -264.45 399.1 264.5" fill="#000000" fill-opacity="0.47843137" fill-rule="evenodd" stroke="none"/>
    <path d="M322.85 -55.45 Q331.85 -55.45 331.85 -46.45 L331.85 43.55 Q331.85 52.55 322.85 52.55 L-287.1 52.55 Q-296.1 52.55 -296.1 43.55 L-296.1 -46.45 Q-296.1 -55.45 -287.1 -55.45 L322.85 -55.45" fill="#996633" fill-opacity="0.47843137" fill-rule="evenodd" stroke="none"/>
    <path d="M322.85 -55.45 L-287.1 -55.45 Q-296.1 -55.45 -296.1 -46.45 L-296.1 43.55 Q-296.1 52.55 -287.1 52.55 L322.85 52.55 Q331.85 52.55 331.85 43.55 L331.85 -46.45 Q331.85 -55.45 322.85 -55.45 Z" fill="none" stroke="#ffffff" stroke-linecap="round" stroke-linejoin="round" stroke-width="1.5"/>
  </g>
</svg>
