<?xml version="1.0" encoding="UTF-8" standalone="no"?>
<svg xmlns:xlink="http://www.w3.org/1999/xlink" height="67.5px" width="74.05px" xmlns="http://www.w3.org/2000/svg">
  <g transform="matrix(1, 0, 0, 1, -697.2, -214.6)">
    <path d="M750.85 240.8 L750.85 219.0 750.85 218.4 757.15 218.4 750.75 217.85 Q747.25 217.3 747.25 216.5 747.25 215.7 750.75 215.15 L759.25 214.6 767.75 215.15 Q771.25 215.7 771.25 216.5 771.25 217.3 767.75 217.85 L761.2 218.4 767.65 218.4 767.65 219.0 767.65 240.8 750.85 240.8 M700.8 218.4 L707.1 218.4 700.7 217.85 Q697.2 217.3 697.2 216.5 697.2 215.7 700.7 215.15 L709.2 214.6 717.7 215.15 Q720.25 215.55 720.95 216.1 L721.2 216.5 720.95 216.9 Q720.25 217.45 717.7 217.85 L711.15 218.4 717.6 218.4 717.6 219.0 717.6 240.8 700.8 240.8 700.8 219.0 700.8 218.4" fill="#cccccc" fill-rule="evenodd" stroke="none"/>
    <path d="M767.65 240.8 L767.65 262.6 Q767.65 281.6 762.2 281.6 L756.3 281.6 Q750.85 281.6 750.85 262.6 L750.85 240.8 767.65 240.8" fill="#ffffff" fill-opacity="0.63529414" fill-rule="evenodd" stroke="none"/>
    <path d="M717.6 240.8 L717.6 262.6 Q717.6 281.6 712.15 281.6 L706.25 281.6 Q700.8 281.6 700.8 262.6 L700.8 240.8 717.6 240.8" fill="#ff0000" fill-rule="evenodd" stroke="none"/>
    <path d="M717.6 218.4 L717.6 219.0 M700.8 219.0 L700.8 218.4" fill="none" stroke="#333333" stroke-linecap="round" stroke-linejoin="round" stroke-width="1.0"/>
    <path d="M717.6 240.8 L717.6 262.6 Q717.6 281.6 712.15 281.6 L706.25 281.6 Q700.8 281.6 700.8 262.6 L700.8 240.8" fill="none" stroke="#d6d6d6" stroke-linecap="round" stroke-linejoin="round" stroke-width="1.0"/>
  </g>
</svg>
