<?xml version="1.0" encoding="UTF-8" standalone="no"?>
<svg xmlns:xlink="http://www.w3.org/1999/xlink" height="35.5px" width="230.8px" xmlns="http://www.w3.org/2000/svg">
  <g transform="matrix(1, 0, 0, 1, -23.35, -420.9)">
    <path d="M254.15 420.9 L254.0 423.4 23.35 423.4 24.6 420.9 254.15 420.9" fill="#d7c5a1" fill-rule="evenodd" stroke="none"/>
    <path d="M228.65 436.0 Q229.05 436.45 229.05 436.9 L229.05 454.95 Q229.05 456.25 227.8 456.4 L226.55 456.3 177.0 456.3 Q175.0 456.3 174.35 455.6 L174.05 454.95 174.05 437.1 Q173.9 435.9 175.35 435.5 L176.8 435.3 225.9 435.4 Q227.85 435.15 228.65 436.0" fill="#939089" fill-rule="evenodd" stroke="none"/>
    <path d="M208.2 438.65 L227.4 438.65 227.4 453.45 208.2 453.45 208.2 438.65" fill="#a09e99" fill-rule="evenodd" stroke="none"/>
    <path d="M213.9 438.65 L208.2 438.65 208.2 453.45 227.4 453.45 227.4 438.65 221.5 438.65" fill="none" stroke="#d9d9d5" stroke-linecap="butt" stroke-linejoin="miter" stroke-miterlimit="10.0" stroke-width="0.5"/>
    <path d="M175.95 453.45 L175.95 438.65 195.15 438.65 195.15 453.45 175.95 453.45" fill="#a09e99" fill-rule="evenodd" stroke="none"/>
    <path d="M182.85 438.65 L176.1 438.65 176.1 453.4 195.25 453.4 195.25 438.65 188.25 438.65" fill="none" stroke="#d9d9d5" stroke-linecap="butt" stroke-linejoin="miter" stroke-miterlimit="10.0" stroke-width="0.5"/>
    <path d="M206.35 438.65 L206.35 453.45 197.0 453.45 197.0 438.65 206.35 438.65" fill="#a09e99" fill-rule="evenodd" stroke="none"/>
    <path d="M204.6 438.65 L206.45 438.65 206.45 453.4 197.1 453.4 197.1 438.65 199.55 438.65" fill="none" stroke="#d9d9d5" stroke-linecap="butt" stroke-linejoin="miter" stroke-miterlimit="10.0" stroke-width="0.5"/>
    <path d="M219.65 450.05 Q218.9 450.75 217.8 450.75 216.7 450.75 215.9 450.05 215.15 449.35 215.15 448.35 215.15 447.35 215.9 446.65 216.7 445.95 217.8 445.95 218.9 445.95 219.65 446.65 220.45 447.35 220.45 448.35 220.45 449.35 219.65 450.05" fill="#939089" fill-rule="evenodd" stroke="none"/>
    <path d="M219.0 449.35 Q218.5 449.8 217.8 449.8 217.05 449.8 216.55 449.35 216.05 448.95 216.05 448.35 216.05 447.7 216.55 447.3 217.05 446.85 217.8 446.85 218.5 446.85 219.0 447.3 219.5 447.7 219.5 448.35 219.5 448.95 219.0 449.35" fill="#d8d1c4" fill-rule="evenodd" stroke="none"/>
    <path d="M220.6 441.5 Q221.0 441.8 221.0 442.25 221.0 442.7 220.6 443.05 L219.75 443.35 216.1 443.35 Q215.6 443.35 215.2 443.05 214.85 442.7 214.85 442.25 214.85 441.8 215.2 441.5 215.6 441.2 216.1 441.2 L219.75 441.2 Q220.25 441.2 220.6 441.5" fill="#e3e2d9" fill-rule="evenodd" stroke="none"/>
  </g>
</svg>
