<?xml version="1.0" encoding="UTF-8" standalone="no"?>
<svg xmlns:xlink="http://www.w3.org/1999/xlink" height="72.05px" width="201.75px" xmlns="http://www.w3.org/2000/svg">
  <g transform="matrix(1, 0, 0, 1, 96.85, 40.0)">
    <path d="M-95.55 9.2 Q-95.3 8.65 -96.05 6.1 L-96.15 5.8 86.65 -21.8 99.3 5.6 -80.25 32.05 -95.55 9.2" fill="#eae7e2" fill-rule="evenodd" stroke="none"/>
    <path d="M88.15 -37.6 L85.2 -20.7 -96.4 5.75 Q-97.0 5.5 -96.8 4.9 L-88.7 -16.2 Q-88.5 -16.8 -87.9 -16.55 L87.7 -40.0 88.15 -37.6" fill="#e1dcd6" fill-rule="evenodd" stroke="none"/>
    <path d="M85.2 -20.7 L88.15 -37.6 88.5 -39.7 104.9 -4.25 99.25 5.4 85.1 -20.2 85.2 -20.7" fill="#7c7d78" fill-rule="evenodd" stroke="none"/>
    <path d="M81.5 -5.05 Q82.65 -4.25 82.85 -2.85 83.15 -1.4 82.3 -0.25 81.5 0.9 80.1 1.2 L-76.4 27.85 Q-77.8 28.1 -79.0 27.25 -80.15 26.45 -80.4 25.0 -80.6 23.6 -79.8 22.45 -79.0 21.25 -77.6 21.0 L78.9 -5.65 Q80.3 -5.85 81.5 -5.05" fill="url(#gradient0)" fill-rule="evenodd" stroke="none"/>
    <path d="M80.3 -7.7 Q79.45 -6.6 78.05 -6.35 L-78.55 19.75 Q-80.0 20.0 -81.1 19.15 -82.3 18.35 -82.55 16.95 -82.8 15.5 -81.9 14.3 -81.1 13.2 -79.7 12.95 L76.9 -13.2 Q78.3 -13.4 79.5 -12.55 80.6 -11.75 80.85 -10.35 81.05 -8.9 80.3 -7.7" fill="url(#gradient1)" fill-rule="evenodd" stroke="none"/>
    <path d="M77.3 -7.3 L83.75 -8.25 M76.1 -10.7 L82.6 -11.6" fill="none" stroke="#333333" stroke-linecap="square" stroke-linejoin="round" stroke-width="0.1"/>
    <path d="M79.5 -0.8 L85.95 -1.75 M78.3 -4.2 L84.8 -5.1" fill="none" stroke="#333333" stroke-linecap="square" stroke-linejoin="round" stroke-width="0.1"/>
    <path d="M-85.1 20.8 L-78.65 19.85 M-86.3 17.4 L-79.8 16.5" fill="none" stroke="#333333" stroke-linecap="square" stroke-linejoin="round" stroke-width="0.1"/>
    <path d="M-82.9 27.3 L-76.45 26.35 M-84.1 23.9 L-77.6 23.0" fill="none" stroke="#333333" stroke-linecap="square" stroke-linejoin="round" stroke-width="0.1"/>
  </g>
  <defs>
    <linearGradient gradientTransform="matrix(0.0016, 0.0094, -0.0042, 7.0E-4, 1.25, 11.1)" gradientUnits="userSpaceOnUse" id="gradient0" spreadMethod="pad" x1="-819.2" x2="819.2">
      <stop offset="0.0" stop-color="#ffffff"/>
      <stop offset="0.5529411764705883" stop-color="#f1c65f"/>
      <stop offset="0.984313725490196" stop-color="#dbdbdb"/>
    </linearGradient>
    <linearGradient gradientTransform="matrix(0.0016, 0.0094, -0.0042, 7.0E-4, -0.85, 3.3)" gradientUnits="userSpaceOnUse" id="gradient1" spreadMethod="pad" x1="-819.2" x2="819.2">
      <stop offset="0.0" stop-color="#ffffff"/>
      <stop offset="0.5529411764705883" stop-color="#f1c45d"/>
      <stop offset="0.984313725490196" stop-color="#dbdbdb"/>
    </linearGradient>
  </defs>
</svg>
