<?xml version="1.0" encoding="UTF-8" standalone="no"?>
<svg xmlns:xlink="http://www.w3.org/1999/xlink" height="32.5px" width="15.65px" xmlns="http://www.w3.org/2000/svg">
  <g transform="matrix(1, 0, 0, 1, 7.8, 16.45)">
    <path d="M-3.1 -12.85 L-3.1 -12.9 3.2 -12.9 7.3 -12.9 7.35 -12.9 7.35 15.95 -3.1 15.95 -3.1 15.9 -3.1 12.85 -3.1 12.8 -3.1 -12.85" fill="url(#gradient0)" fill-rule="evenodd" stroke="none"/>
    <path d="M3.2 -15.8 L3.2 -12.9 -3.1 -12.9 -3.1 -12.85 -7.25 -15.9 -7.25 -15.95 -7.25 -16.0 3.2 -16.0 3.2 -15.8 3.0 -15.95 -7.25 -15.95 3.0 -15.95 3.2 -15.8 M-7.25 12.8 L-3.1 12.8 -3.1 12.85 -7.25 12.85 -7.25 12.8" fill="url(#gradient1)" fill-rule="evenodd" stroke="none"/>
    <path d="M-7.25 -15.9 L-3.1 -12.85 -3.1 12.8 -7.25 12.8 -7.25 -15.9" fill="url(#gradient2)" fill-rule="evenodd" stroke="none"/>
    <path d="M3.2 -15.8 L3.0 -15.95 -7.25 -15.95 -7.3 -15.95 -7.25 -15.9 -3.1 -12.85 M-3.1 -12.9 L3.2 -12.9 7.3 -12.9 3.2 -15.8 M7.3 -12.9 L7.35 -12.9" fill="none" stroke="#666666" stroke-linecap="round" stroke-linejoin="round" stroke-width="1.0"/>
    <path d="M3.2 -12.9 L3.2 -15.8 3.2 -16.0 -7.25 -16.0 -7.25 -15.95 -7.25 -15.9 -7.25 12.8 -3.1 12.8 -3.1 -12.85 -3.1 -12.9 M7.35 -12.9 L7.35 15.95 -3.1 15.95 -3.1 15.9 Q-5.15 14.4 -7.25 12.85 L-7.3 12.8 -7.25 12.8 -7.25 12.85 -3.1 12.85 -3.1 12.8 M-3.1 15.9 L-3.1 12.85" fill="none" stroke="#ffffff" stroke-linecap="round" stroke-linejoin="round" stroke-width="0.1"/>
    <path d="M-7.35 -15.85 L-3.15 -12.75 -3.15 16.0 -7.35 12.95 -7.35 -15.85" fill="url(#gradient3)" fill-rule="evenodd" stroke="none"/>
    <path d="M-3.15 -12.75 L-3.15 16.0 -7.35 12.95 -7.35 -15.85" fill="none" stroke="#ffffff" stroke-linecap="round" stroke-linejoin="round" stroke-width="0.1"/>
    <path d="M7.35 15.85 L-3.15 15.9 -7.45 12.8 -7.25 1.65 -3.15 3.2 7.3 2.95 7.35 15.85" fill="#ffff66" fill-rule="evenodd" stroke="none"/>
  </g>
  <defs>
    <linearGradient gradientTransform="matrix(0.0, 0.0232, -0.0176, 0.0, 2.45, -5.45)" gradientUnits="userSpaceOnUse" id="gradient0" spreadMethod="pad" x1="-819.2" x2="819.2">
      <stop offset="0.0" stop-color="#ffffff" stop-opacity="0.0"/>
      <stop offset="1.0" stop-color="#cccccc"/>
    </linearGradient>
    <radialGradient cx="0" cy="0" fx="816.0" fy="0" gradientTransform="matrix(0.0, -0.0203, 0.0307, 0.0, -2.9, -8.55)" gradientUnits="userSpaceOnUse" id="gradient1" r="819.2" spreadMethod="pad">
      <stop offset="0.0" stop-color="#ffffff" stop-opacity="0.0"/>
      <stop offset="1.0" stop-color="#00afd2"/>
    </radialGradient>
    <radialGradient cx="0" cy="0" fx="816.0" fy="0" gradientTransform="matrix(0.0, -0.0203, 0.0307, 0.0, -2.9, -8.55)" gradientUnits="userSpaceOnUse" id="gradient2" r="819.2" spreadMethod="pad">
      <stop offset="0.0" stop-color="#ffffff" stop-opacity="0.0"/>
      <stop offset="1.0" stop-color="#666666"/>
    </radialGradient>
    <radialGradient cx="0" cy="0" gradientTransform="matrix(0.0304, 0.0, 0.0, 0.0304, -4.65, -8.8)" gradientUnits="userSpaceOnUse" id="gradient3" r="819.2" spreadMethod="pad">
      <stop offset="0.0" stop-color="#ffffff" stop-opacity="0.0"/>
      <stop offset="1.0" stop-color="#cccccc"/>
    </radialGradient>
  </defs>
</svg>
