<?xml version="1.0" encoding="UTF-8" standalone="no"?>
<svg xmlns:xlink="http://www.w3.org/1999/xlink" height="125.5px" width="654.45px" xmlns="http://www.w3.org/2000/svg">
  <g transform="matrix(1, 0, 0, 1, 327.2, 62.75)">
    <path d="M317.5 -62.0 Q326.5 -62.0 326.5 -53.0 L326.5 53.0 Q326.5 62.0 317.5 62.0 L-317.45 62.0 Q-326.45 62.0 -326.45 53.0 L-326.45 -53.0 Q-326.45 -62.0 -317.45 -62.0 L317.5 -62.0" fill="#996633" fill-opacity="0.47843137" fill-rule="evenodd" stroke="none"/>
    <path d="M317.5 -62.0 L-317.45 -62.0 Q-326.45 -62.0 -326.45 -53.0 L-326.45 53.0 Q-326.45 62.0 -317.45 62.0 L317.5 62.0 Q326.5 62.0 326.5 53.0 L326.5 -53.0 Q326.5 -62.0 317.5 -62.0 Z" fill="none" stroke="#ffffff" stroke-linecap="round" stroke-linejoin="round" stroke-width="1.5"/>
  </g>
</svg>
