<?xml version="1.0" encoding="UTF-8" standalone="no"?>
<svg xmlns:xlink="http://www.w3.org/1999/xlink" height="66.5px" width="796.7px" xmlns="http://www.w3.org/2000/svg">
  <g transform="matrix(1, 0, 0, 1, -1.25, -530.2)">
    <path d="M793.2 530.95 Q797.2 530.95 797.2 534.95 L797.2 591.95 Q797.2 595.95 793.2 595.95 L6.0 595.95 Q2.0 595.95 2.0 591.95 L2.0 534.95 Q2.0 530.95 6.0 530.95 L793.2 530.95" fill="#000000" fill-rule="evenodd" stroke="none"/>
    <path d="M793.2 530.95 L6.0 530.95 Q2.0 530.95 2.0 534.95 L2.0 591.95 Q2.0 595.95 6.0 595.95 L793.2 595.95 Q797.2 595.95 797.2 591.95 L797.2 534.95 Q797.2 530.95 793.2 530.95 Z" fill="none" stroke="#ff0000" stroke-linecap="round" stroke-linejoin="round" stroke-width="1.5"/>
  </g>
</svg>
