<?xml version="1.0" encoding="UTF-8" standalone="no"?>
<svg xmlns:xlink="http://www.w3.org/1999/xlink" height="472.75px" width="802.2px" xmlns="http://www.w3.org/2000/svg">
  <g transform="matrix(1, 0, 0, 1, 2.0, -125.05)">
    <path d="M799.2 413.55 Q799.2 414.55 800.2 414.55 L800.2 596.8 Q799.2 596.8 799.2 597.8 L-1.0 597.8 Q-1.0 596.8 -2.0 596.8 L-2.0 414.55 Q-1.0 414.55 -1.0 413.55 L799.2 413.55" fill="#000000" fill-rule="evenodd" stroke="none"/>
    <path d="M234.35 172.3 L235.1 166.65 241.45 131.65 Q242.6 125.0 245.5 125.05 L551.15 125.05 Q553.95 125.0 555.5 131.65 L563.65 166.65 564.9 172.5 564.25 171.6 563.25 171.15 235.8 171.15 Q234.95 171.2 234.35 172.3" fill="#000000" fill-rule="evenodd" stroke="none"/>
    <path d="M234.35 172.3 Q234.95 171.2 235.8 171.15 L563.25 171.15 564.25 171.6 564.9 172.5 565.1 172.9 565.3 173.4 Q565.8 174.9 565.85 176.8 L565.85 177.15 Q565.85 179.65 565.1 181.4 564.35 183.15 563.25 183.15 L235.9 183.15 Q234.8 183.15 234.0 181.4 233.55 180.3 233.55 176.8 233.55 174.2 234.0 173.0 L234.0 172.9 234.35 172.3" fill="#333333" fill-rule="evenodd" stroke="none"/>
  </g>
</svg>
